<?xml version="1.0" encoding="UTF-8"?>
<svg version="1.1" xmlns="http://www.w3.org/2000/svg" width="500" height="394">
<path d="M0 0 C2.16174318 3.24261478 2.2484551 4.1018746 2.24050903 7.84049988 C2.24463303 9.33599113 2.24463303 9.33599113 2.24884033 10.86169434 C2.2380545 12.50059631 2.2380545 12.50059631 2.22705078 14.17260742 C2.22734283 15.32396683 2.22763489 16.47532623 2.22793579 17.66157532 C2.2265398 21.47628249 2.21096571 25.29079559 2.1953125 29.10546875 C2.19158333 31.74676914 2.18873591 34.38807091 2.18673706 37.02937317 C2.18051893 43.27668347 2.16410364 49.52392384 2.14403808 55.77120334 C2.12168942 62.88358239 2.11068825 69.99596477 2.10064721 77.10837018 C2.07973768 91.73894954 2.04455524 106.36947379 2 121 C2.60898132 120.83923477 3.21796265 120.67846954 3.84539795 120.51283264 C6.32879978 119.92173995 8.6526919 119.78739045 11.203125 119.68359375 C12.1828125 119.64169922 13.1625 119.59980469 14.171875 119.55664062 C15.18765625 119.51732422 16.2034375 119.47800781 17.25 119.4375 C18.28125 119.39431641 19.3125 119.35113281 20.375 119.30664062 C22.9165387 119.20074318 25.45817196 119.09866557 28 119 C28.99 117.02 28.99 117.02 30 115 C28.19402344 115.01740234 28.19402344 115.01740234 26.3515625 115.03515625 C24.77604321 115.04453434 23.20052225 115.05363452 21.625 115.0625 C20.8309375 115.07087891 20.036875 115.07925781 19.21875 115.08789062 C13.2265625 115.11328125 13.2265625 115.11328125 11 114 C10.13671875 111.79296875 10.13671875 111.79296875 10 109 C11.58203125 106.17578125 11.58203125 106.17578125 13.8125 103.3125 C14.54082031 102.35988281 15.26914063 101.40726562 16.01953125 100.42578125 C19.00833401 96.76494 20.32501791 95.62469738 25 95 C27.71092921 94.89761599 30.39654019 94.84290619 33.10742188 94.83886719 C34.31078941 94.83141983 34.31078941 94.83141983 35.53846741 94.82382202 C38.18190377 94.8092632 40.8252802 94.80241042 43.46875 94.796875 C45.31050619 94.79112025 47.15226238 94.78536256 48.99401855 94.77960205 C52.85067015 94.76911126 56.707301 94.76325541 60.56396484 94.75976562 C65.50370855 94.75427193 70.44317788 94.7302172 75.38283539 94.70179367 C79.18496504 94.68316879 82.98702841 94.67796187 86.78919983 94.67642975 C88.61045336 94.67340451 90.43170576 94.66538032 92.25291443 94.65224457 C94.79968214 94.63518022 97.34577636 94.63706464 99.89257812 94.64355469 C101.01799767 94.62973251 101.01799767 94.62973251 102.16615295 94.6156311 C106.62600352 94.65121391 109.40371515 95.33389514 113 98 C111.42405963 104.14616743 108.50546499 110.55589115 103.16796875 114.27734375 C95.92713654 117.2816661 87.59209652 115.77318284 80 115 C79.34 116.65 78.68 118.3 78 120 C78.96160034 119.97715942 78.96160034 119.97715942 79.94262695 119.95385742 C87.44253846 119.85537712 94.74201658 120.4493093 102.1875 121.3125 C103.36916748 121.44567627 104.55083496 121.57885254 105.76831055 121.71606445 C113.55173434 122.62527573 121.2027434 123.80586905 128.86328125 125.44921875 C136.24069819 126.74463069 139.90899881 125.36244878 146.125 121.5625 C147.52090973 120.72623481 148.91927472 119.89405144 150.3203125 119.06640625 C150.93148926 118.69459229 151.54266602 118.32277832 152.17236328 117.93969727 C160.12831694 113.849066 168.88040333 115.99074849 177 118.375 C177.75434326 118.59623535 178.50868652 118.8174707 179.28588867 119.04541016 C184.72907297 120.72907297 184.72907297 120.72907297 187 123 C187.125 125.3125 187.125 125.3125 186 128 C181.30297419 131.8695101 175.44852598 134.37303212 170 137 C171.39798828 137.70962891 171.39798828 137.70962891 172.82421875 138.43359375 C190.85024226 147.72153033 208.7407606 158.94369025 216.4375 178.6875 C218.39002149 189.34958364 217.86088437 200.2477555 213 210 C212.59910156 210.804375 212.19820313 211.60875 211.78515625 212.4375 C201.89367983 230.3281704 185.83781688 243.06409832 169 254 C168.41831055 254.38510742 167.83662109 254.77021484 167.23730469 255.16699219 C147.78186443 267.96038383 125.63822138 276.25731864 103.80615234 283.99707031 C101.49123665 284.82443012 99.19003798 285.67540578 96.89453125 286.5546875 C87.86466168 289.96338387 78.62225401 292.25311899 69.24316406 294.46972656 C67.39704108 294.90614136 65.55359649 295.35387069 63.7109375 295.8046875 C-3.37605088 311.89833161 -76.5739118 317.92008005 -144.37304688 302.59228516 C-146.67688409 302.07285123 -148.98434551 301.58420874 -151.296875 301.10546875 C-172.5375949 296.35881808 -193.59482951 287.48729984 -210 273 C-210.63421875 272.45988281 -211.2684375 271.91976563 -211.921875 271.36328125 C-219.97554086 264.00451134 -225.34963025 253.91445735 -226.37109375 243.0546875 C-226.90242812 224.95490035 -219.30546283 211.20542325 -207.11206055 198.20336914 C-179.53843789 169.47360004 -139.8549604 154.03072118 -102.9375 141.4375 C-101.93195068 141.09041992 -100.92640137 140.74333984 -99.89038086 140.38574219 C-95.13728085 138.80502333 -91.08186129 137.52866379 -86 138 C-86.48279138 133.62609581 -86.48279138 133.62609581 -88.625 129.875 C-90 128 -90 128 -90.0625 125.9375 C-88.05721184 122.28079807 -83.79252851 121.24122929 -79.96728516 120.0769043 C-76.52382469 119.26140356 -73.07757415 118.46358829 -69.625 117.6875 C-67.83449219 117.2534082 -67.83449219 117.2534082 -66.0078125 116.81054688 C-59.35870964 115.30640801 -54.36718882 114.24482433 -48 117 C-45.90625 119.1640625 -45.90625 119.1640625 -44.5 121.625 C-43.77296875 122.85089844 -43.77296875 122.85089844 -43.03125 124.1015625 C-42.6909375 124.72804688 -42.350625 125.35453125 -42 126 C-40.20824107 125.85530469 -38.41659858 125.70916739 -36.625 125.5625 C-34.99498047 125.42908203 -34.99498047 125.42908203 -33.33203125 125.29296875 C-29.50090821 124.95611737 -25.68253676 124.53669493 -21.86328125 124.0859375 C-21.24839844 124.05757813 -20.63351563 124.02921875 -20 124 C-17.95633856 126.04366144 -18.49684165 130.00313329 -18.3125 132.8125 C-18.25255859 133.53759766 -18.19261719 134.26269531 -18.13085938 135.00976562 C-17.67856481 141.78179239 -17.67856481 141.78179239 -20 145 C-22.33837891 145.82128906 -22.33837891 145.82128906 -25.2265625 146.265625 C-26.2578125 146.43320313 -27.2890625 146.60078125 -28.3515625 146.7734375 C-29.43179688 146.93070313 -30.51203125 147.08796875 -31.625 147.25 C-32.71296875 147.42273438 -33.8009375 147.59546875 -34.921875 147.7734375 C-37.61251627 148.1982756 -40.30464741 148.60636081 -43 149 C-42.979375 150.11375 -42.95875 151.2275 -42.9375 152.375 C-43 156 -43 156 -44 158 C-48.28365515 157.64302874 -51.07665394 157.06659872 -54.75 154.8125 C-62.59732883 150.65750618 -73.97560626 155.92057252 -82 158.1875 C-83.08289307 158.49139648 -84.16578613 158.79529297 -85.28149414 159.10839844 C-93.67728312 161.5140828 -101.83275965 164.36596555 -109.984375 167.48828125 C-114.58921396 169.24914573 -119.25134444 170.67660419 -124 172 C-121.42215154 174.64752004 -119.08351902 176.94432065 -116 179 C-116.33 179.99 -116.66 180.98 -117 182 C-117.9132605 181.9074292 -117.9132605 181.9074292 -118.8449707 181.81298828 C-135.43193573 180.03371548 -135.43193573 180.03371548 -150 187 C-151.21423017 187.84765734 -152.4333521 188.68833355 -153.65625 189.5234375 C-160.69618334 194.31193202 -160.69618334 194.31193202 -167 200 C-167.86625 200.61875 -168.7325 201.2375 -169.625 201.875 C-172.37004747 204.3310951 -172.47639077 205.4743645 -173 209 C-171.64455078 209.07347656 -171.64455078 209.07347656 -170.26171875 209.1484375 C-169.08222656 209.22320312 -167.90273437 209.29796875 -166.6875 209.375 C-165.51574219 209.44460937 -164.34398437 209.51421875 -163.13671875 209.5859375 C-160 210 -160 210 -157 212 C-157 212.66 -157 213.32 -157 214 C-162.83293507 215.59201668 -168.48899279 216.52781525 -174.5 217.125 C-175.32242188 217.21136719 -176.14484375 217.29773438 -176.9921875 217.38671875 C-178.99426526 217.59623852 -180.99706397 217.79885044 -183 218 C-185.47107446 227.45302543 -185.7889329 235.58735145 -183 245 C-182.36835938 244.9278125 -181.73671875 244.855625 -181.0859375 244.78125 C-173.37431421 243.98119686 -165.74819817 243.89819886 -158 244 C-157.67 244.99 -157.34 245.98 -157 247 C-159.29032311 247.83719383 -161.58210957 248.6698929 -163.875 249.5 C-164.52597656 249.73847656 -165.17695313 249.97695313 -165.84765625 250.22265625 C-170.7734375 252 -170.7734375 252 -173 252 C-173 253.65 -173 255.3 -173 257 C-172.4225 257.0825 -171.845 257.165 -171.25 257.25 C-169 258 -169 258 -167.38671875 259.7890625 C-164.14188988 262.79491052 -160.56950723 264.32509752 -156.5625 266.125 C-155.81162109 266.47175781 -155.06074219 266.81851562 -154.28710938 267.17578125 C-152.83383484 267.84298381 -151.37641372 268.5012452 -149.91455078 269.14941406 C-148.39938513 269.8225634 -146.89809124 270.5269278 -145.40234375 271.2421875 C-138.76219701 273.33680289 -132.51246653 271.31481948 -126.0625 269.5 C-125.18787109 269.26152344 -124.31324219 269.02304687 -123.41210938 268.77734375 C-121.27244561 268.19273616 -119.13534428 267.60015656 -117 267 C-117 271.36795404 -117.22762148 271.74658993 -120 274.75 C-120.8353125 275.67039062 -120.8353125 275.67039062 -121.6875 276.609375 C-122.120625 277.06828125 -122.55375 277.5271875 -123 278 C-102.59160518 281.68416364 -102.59160518 281.68416364 -82 284 C-80.62400635 284.10199707 -80.62400635 284.10199707 -79.22021484 284.20605469 C-64.96020054 285.46017249 -64.96020054 285.46017249 -52.3125 280 C-51.54550781 279.2575 -50.77851563 278.515 -49.98828125 277.75 C-48 276 -48 276 -44 276 C-43.67 278.97 -43.34 281.94 -43 285 C-29.29071396 284.71820584 -15.74087287 283.6808069 -2.125 282.125 C-1.40122162 282.04390991 -0.67744324 281.96281982 0.06826782 281.87927246 C10.79512695 280.6674039 21.38889295 278.97991987 32 277 C32.04793701 276.32888184 32.09587402 275.65776367 32.14526367 274.96630859 C32.48828125 270.1640625 32.48828125 270.1640625 33 268 C33.99 267.34 34.98 266.68 36 266 C39.20739672 267.34400857 42.15151867 269.02198652 45.1875 270.71484375 C53.41946193 274.23234189 63.56000112 270.28400002 71.625 267.8125 C72.66825439 267.50006348 73.71150879 267.18762695 74.78637695 266.86572266 C88.08219465 262.83582046 101.07352921 258.08066504 114 253 C113.21238281 252.38640625 112.42476563 251.7728125 111.61328125 251.140625 C109.27373908 249.22422872 107.68534477 247.48366598 106 245 C109.1181438 243.1432871 110.9320088 242.83980132 114.5 243.375 C115.38816406 243.46910156 116.27632813 243.56320312 117.19140625 243.66015625 C119.01958735 243.88136871 120.84221819 244.15752829 122.65234375 244.49609375 C133.73253344 245.75485303 142.61820415 238.41983735 151 232 C159.54778634 225.38220976 159.54778634 225.38220976 166 217 C164.67935547 216.92652344 164.67935547 216.92652344 163.33203125 216.8515625 C162.17058594 216.77679688 161.00914062 216.70203125 159.8125 216.625 C158.66394531 216.55539063 157.51539063 216.48578125 156.33203125 216.4140625 C153.20040883 216.02490426 150.84714191 215.3190149 148 214 C148 213.01 148 212.02 148 211 C153.5342074 209.17259729 158.62984825 208.59963117 164.4375 208.375 C165.26443359 208.33632812 166.09136719 208.29765625 166.94335938 208.2578125 C168.96191073 208.16446908 170.98092331 208.08119039 173 208 C175.37238103 199.10357114 176.47772855 190.69432138 173 182 C164.75 182 156.5 182 148 182 C148.33 180.68 148.66 179.36 149 178 C150.78515625 177.0234375 150.78515625 177.0234375 153.0625 176.375 C153.866875 176.13910156 154.67125 175.90320313 155.5 175.66015625 C156.325 175.44230469 157.15 175.22445312 158 175 C158.78375 174.79246094 159.5675 174.58492187 160.375 174.37109375 C162.24489439 173.89360286 164.1218539 173.44392544 166 173 C165.34 172.38125 164.68 171.7625 164 171.125 C162 169 162 169 162 167 C161.2575 166.71125 160.515 166.4225 159.75 166.125 C157.43260203 165.17697356 155.22082885 164.15154089 153 163 C153 162.34 153 161.68 153 161 C151.7625 160.608125 150.525 160.21625 149.25 159.8125 C145.33716583 158.54513547 141.72100002 156.9335077 138 155.1875 C132.16545334 152.7281278 128.8340218 152.84305532 123 155 C121.29513982 155.55250098 119.58666956 156.09396999 117.875 156.625 C116.6375 157.00978516 116.6375 157.00978516 115.375 157.40234375 C112.128399 158.21933381 109.32895039 158.21710546 106 158 C107.5830577 153.7257442 110.50568404 151.73468206 114 149 C108.94505629 147.1054169 104.00153183 146.25053483 98.6875 145.5 C97.80376709 145.37326904 96.92003418 145.24653809 96.00952148 145.1159668 C94.19986333 144.85953224 92.38971896 144.60650518 90.57910156 144.35693359 C88.96824689 144.13400009 87.35807453 143.90600874 85.74902344 143.67041016 C80.8426879 142.95304961 75.94287308 142.39555642 71 142 C70.14696289 141.93055176 69.29392578 141.86110352 68.41503906 141.78955078 C57.14785278 140.99457696 49.18065864 140.69943421 40.27734375 148.34765625 C38 150 38 150 35.69140625 149.74609375 C35.13324219 149.49988281 34.57507813 149.25367188 34 149 C33.67 146.36 33.34 143.72 33 141 C31.93523437 141.0721875 30.87046875 141.144375 29.7734375 141.21875 C28.30730657 141.31273275 26.84115983 141.40646911 25.375 141.5 C24.33472656 141.57154297 24.33472656 141.57154297 23.2734375 141.64453125 C16.14340244 142.09015844 9.19678985 142 2 142 C2 160.15 2 178.3 2 197 C4.64 197 7.28 197 10 197 C15.50881942 198.02706803 18.50185004 199.57586917 22 204 C22.6328125 206.66796875 22.6328125 206.66796875 23 209 C29.1031842 210.69106669 35.20758149 212.37770589 41.3125 214.0625 C42.21671692 214.31232635 43.12093384 214.56215271 44.05255127 214.81954956 C53.21787581 217.34992697 62.38279613 219.87399561 71.59765625 222.21875 C72.84313232 222.53577881 74.0886084 222.85280762 75.37182617 223.17944336 C77.66332891 223.75707005 79.95641627 224.32845536 82.2512207 224.89282227 C83.25886475 225.14604248 84.26650879 225.3992627 85.3046875 225.66015625 C86.6038208 225.97932007 86.6038208 225.97932007 87.92919922 226.30493164 C90 227 90 227 92 229 C92.57769286 236.27893007 92.57769286 236.27893007 90.71923828 238.59863281 C88.2141687 240.64053843 85.82519089 240.4195835 82.69970703 240.30712891 C77.30366662 239.69325489 72.15238645 238.15914705 66.9375 236.6875 C65.66559814 236.34009766 64.39369629 235.99269531 63.08325195 235.63476562 C56.0976408 233.72564073 49.12920739 231.75563983 42.16099548 229.78413391 C38.55950714 228.76720656 34.95573862 227.75848982 31.35183716 226.75015259 C28.72969246 226.01187942 26.11183662 225.25961609 23.49389648 224.5065918 C21.85417594 224.04544903 20.21429064 223.58489162 18.57421875 223.125 C17.84088318 222.90975174 17.10754761 222.69450348 16.35198975 222.47273254 C9.05615423 220.45631682 2.41334913 220.66232956 -5 222 C-13.46462409 222.45158664 -21.4704751 222.69844036 -28.9375 218.25 C-31.54419745 215.40633006 -32.07861415 213.85209346 -32 210 C-29.23100889 204.94358145 -25.00326233 203.280899 -20 201 C-17.36 199.68 -14.72 198.36 -12 197 C-12 152.12 -12 107.24 -12 61 C-16.29 60.01 -20.58 59.02 -25 58 C-29.5625 56.0625 -29.5625 56.0625 -31.734375 55.01953125 C-34.22080252 53.90063886 -36.71350358 53.0739835 -39.3125 52.25 C-44.9409671 50.43135099 -50.3967066 48.28327717 -55.875 46.0625 C-66.17125522 41.89341104 -76.53992081 38.03500566 -87.1328125 34.67578125 C-89.18092277 33.93451958 -91.07071678 33.00751457 -93 32 C-93 31.01 -93 30.02 -93 29 C-81.80299668 25.07499095 -70.60120726 21.16401002 -59.39338684 17.26998901 C-53.1364878 15.09506993 -46.88449297 12.90670823 -40.63565063 10.70875549 C-36.62311693 9.300614 -32.60657894 7.90417112 -28.58898926 6.51052856 C-26.65996332 5.83868882 -24.73261417 5.16201444 -22.80700684 4.48043823 C-20.10867487 3.52624081 -17.40490264 2.58935961 -14.69921875 1.65625 C-13.90414413 1.37056656 -13.10906952 1.08488312 -12.28990173 0.7905426 C-7.86964928 -0.71126685 -4.60598634 -1.52298574 0 0 Z " fill="#A4B98D" transform="translate(235,37)"/>
<path d="M0 0 C1.98 0.33 3.96 0.66 6 1 C6 1.66 6 2.32 6 3 C6.64066406 3.07347656 7.28132812 3.14695313 7.94140625 3.22265625 C12.28546856 4.32670274 15.99162407 6.34259145 19.9375 8.4375 C20.77708252 8.88198486 21.61666504 9.32646973 22.48168945 9.78442383 C30.14085718 13.9270954 37.13846945 18.65417792 44 24 C44.78890625 24.60457031 45.5778125 25.20914063 46.390625 25.83203125 C56.07119095 33.72058404 63.0885519 45.47092187 65 57.875 C65.71349722 71.34496268 60.47321537 83.21202607 51.64868164 93.03759766 C49.58512746 95.26535956 47.47900576 97.44755846 45.35107422 99.61376953 C44.26393519 100.72919696 43.20690074 101.87392467 42.16015625 103.02734375 C22.04721702 124.77797777 -10.90392404 137.37601297 -38.07177734 146.96337891 C-40.82308494 147.93737024 -43.56168411 148.94152927 -46.30078125 149.94921875 C-89.35155289 165.40123068 -135.85705874 173.96972863 -181.33520508 177.81030273 C-182.11815445 177.87874893 -182.90110382 177.94719513 -183.70777893 178.01771545 C-185.16751463 178.14333222 -186.62801502 178.26045351 -188.08921814 178.36766052 C-189.73366565 178.50820038 -191.36948882 178.74428069 -193 179 C-193.495 179.99 -193.495 179.99 -194 181 C-196.31 180.67 -198.62 180.34 -201 180 C-201.33 179.01 -201.66 178.02 -202 177 C-199.14599797 175.09733198 -198.12309029 174.68107608 -194.89916992 174.23803711 C-194.07789108 174.12129135 -193.25661224 174.00454559 -192.41044617 173.88426208 C-191.52605362 173.76647903 -190.64166107 173.64869598 -189.73046875 173.52734375 C-188.81670975 173.39936905 -187.90295074 173.27139435 -186.96150208 173.13954163 C-184.03778718 172.7316086 -181.11274325 172.33431017 -178.1875 171.9375 C-175.27333532 171.53474102 -172.35947268 171.12984888 -169.44563293 170.7247467 C-167.63281335 170.47354297 -165.81974285 170.22414144 -164.00639343 169.97679138 C-111.67843336 162.82153858 -51.20231788 148.54851344 -8 117 C-7.13503906 116.39800781 -6.27007812 115.79601562 -5.37890625 115.17578125 C0.47180299 111.04539151 5.80401184 106.61283998 11.00390625 101.6875 C13 100 13 100 15 100 C15.39638672 99.12021484 15.39638672 99.12021484 15.80078125 98.22265625 C17.04300714 95.92028969 18.39631548 94.33525385 20.1875 92.4375 C30.70107351 80.6097298 36.43856871 67.39675643 36.27734375 51.54296875 C35.0888594 36.36049963 27.18014056 24.78262299 16 15 C12.15709662 12.0443552 8.19728446 9.31749526 4.0390625 6.82421875 C2.375 5.8125 2.375 5.8125 0 4 C0 2.68 0 1.36 0 0 Z " fill="#F06017" transform="translate(424,175)"/>
<path d="M0 0 C0 0.66 0 1.32 0 2 C-1.65532623 3.01866229 -3.32260138 4.01810813 -5 5 C-5.33 5.66 -5.66 6.32 -6 7 C-6.66 7 -7.32 7 -8 7 C-8.33 8.65 -8.66 10.3 -9 12 C-8.34 12 -7.68 12 -7 12 C-7 11.01 -7 10.02 -7 9 C-4.525 8.01 -4.525 8.01 -2 7 C-2 6.34 -2 5.68 -2 5 C-0.35 5.33 1.3 5.66 3 6 C3 6.66 3 7.32 3 8 C4.32 8 5.64 8 7 8 C7.33 7.01 7.66 6.02 8 5 C9.60203467 4.63631108 11.20674203 4.28438048 12.8125 3.9375 C13.70582031 3.74027344 14.59914063 3.54304688 15.51953125 3.33984375 C18 3 18 3 21 4 C-32.15586442 25.58468947 -88.14308445 38.98049776 -145.33520508 43.81030273 C-146.11815445 43.87874893 -146.90110382 43.94719513 -147.70777893 44.01771545 C-149.16751463 44.14333222 -150.62801502 44.26045351 -152.08921814 44.36766052 C-153.73366565 44.50820038 -155.36948882 44.74428069 -157 45 C-157.33 45.66 -157.66 46.32 -158 47 C-160.31 46.67 -162.62 46.34 -165 46 C-165.495 44.515 -165.495 44.515 -166 43 C-163.14599797 41.09733198 -162.12309029 40.68107608 -158.89916992 40.23803711 C-158.07789108 40.12129135 -157.25661224 40.00454559 -156.41044617 39.88426208 C-155.52605362 39.76647903 -154.64166107 39.64869598 -153.73046875 39.52734375 C-152.81670975 39.39936905 -151.90295074 39.27139435 -150.96150208 39.13954163 C-148.03778718 38.7316086 -145.11274325 38.33431017 -142.1875 37.9375 C-139.27333532 37.53474102 -136.35947268 37.12984888 -133.44563293 36.7247467 C-131.63281335 36.47354297 -129.81974285 36.22414144 -128.00639343 35.97679138 C-87.36584475 30.41965903 -47.02883647 19.28506207 -9.38525391 3.09814453 C-8.44343262 2.69321777 -7.50161133 2.28829102 -6.53125 1.87109375 C-5.70173828 1.50943115 -4.87222656 1.14776855 -4.01757812 0.77514648 C-2 0 -2 0 0 0 Z " fill="#E36726" transform="translate(388,309)"/>
<path d="M0 0 C7.42365808 1.36662563 14.66336967 3.1808626 21.9375 5.1875 C29.15460524 7.16233763 36.37502897 9.10938034 43.62890625 10.9453125 C44.8619751 11.25831299 46.09504395 11.57131348 47.36547852 11.89379883 C49.75648974 12.49817682 52.14888058 13.09712723 54.54272461 13.69018555 C56.16126343 14.10071167 56.16126343 14.10071167 57.8125 14.51953125 C58.76769531 14.75776611 59.72289062 14.99600098 60.70703125 15.24145508 C63 16 63 16 65 18 C65.57800521 25.28286569 65.57800521 25.28286569 63.71289062 27.59692383 C61.2390175 29.62334185 58.91144333 29.44554193 55.81396484 29.33789062 C49.83988954 28.62054547 44.09086874 26.87649313 38.3125 25.25 C37.03955078 24.90195312 35.76660156 24.55390625 34.45507812 24.1953125 C31.90738465 23.49589487 29.36192294 22.788293 26.81884766 22.07226562 C24.20163443 21.33739793 21.58378082 20.61645212 18.95849609 19.91210938 C17.68699707 19.56470703 16.41549805 19.21730469 15.10546875 18.859375 C13.9558667 18.54967773 12.80626465 18.23998047 11.62182617 17.92089844 C9 17 9 17 8 15 C13.06130793 14.82843024 16.33842674 14.95345564 21 17 C23.98324134 17.74833851 26.98711601 18.38298236 30 19 C30.33 16.36 30.66 13.72 31 11 C30.195625 10.87625 29.39125 10.7525 28.5625 10.625 C27.716875 10.41875 26.87125 10.2125 26 10 C25.67 9.34 25.34 8.68 25 8 C23.7315625 8.061875 23.7315625 8.061875 22.4375 8.125 C18.61019674 7.98582534 15.65185525 7.15642083 12 6 C11.14277344 5.77054688 10.28554688 5.54109375 9.40234375 5.3046875 C8.05849609 4.93730469 8.05849609 4.93730469 6.6875 4.5625 C5.42486328 4.22412109 5.42486328 4.22412109 4.13671875 3.87890625 C2 3 2 3 0 0 Z " fill="#AABC96" transform="translate(262,248)"/>
<path d="M0 0 C-2.22813676 2.22813676 -3.06271696 2.40745026 -6.0625 3 C-6.8565625 3.16242188 -7.650625 3.32484375 -8.46875 3.4921875 C-9.3040625 3.65976562 -10.139375 3.82734375 -11 4 C-12.68833338 4.37122993 -14.37588374 4.74604508 -16.0625 5.125 C-17.375 5.41666667 -18.6875 5.70833333 -20 6 C-18.81575674 7.41577477 -18.81575674 7.41577477 -15.4375 7.0625 C-14.303125 7.041875 -13.16875 7.02125 -12 7 C-15.27339827 10.73499169 -19.05578276 11.08409846 -23.765625 11.90234375 C-24.65556152 12.06500229 -25.54549805 12.22766083 -26.46240234 12.39524841 C-29.38924794 12.9236733 -32.31916665 13.4316947 -35.25 13.9375 C-36.24543823 14.11363831 -37.24087646 14.28977661 -38.26647949 14.47125244 C-54.55693131 17.344367 -70.84416704 19.41563478 -87.32519531 20.80834961 C-88.10958984 20.87707779 -88.89398438 20.94580597 -89.70214844 21.01661682 C-91.16395341 21.14281047 -92.62653893 21.26036921 -94.08984375 21.36778259 C-95.73408496 21.50824639 -97.36969828 21.74431355 -99 22 C-99.33 22.66 -99.66 23.32 -100 24 C-102.31 23.67 -104.62 23.34 -107 23 C-107.33 22.01 -107.66 21.02 -108 20 C-105.14599797 18.09733198 -104.12309029 17.68107608 -100.89916992 17.23803711 C-100.07789108 17.12129135 -99.25661224 17.00454559 -98.41044617 16.88426208 C-97.52605362 16.76647903 -96.64166107 16.64869598 -95.73046875 16.52734375 C-94.81670975 16.39936905 -93.90295074 16.27139435 -92.96150208 16.13954163 C-90.03778718 15.7316086 -87.11274325 15.33431017 -84.1875 14.9375 C-81.27333532 14.53474102 -78.35947268 14.12984888 -75.44563293 13.7247467 C-73.63281335 13.47354297 -71.81974285 13.22414144 -70.00639343 12.97679138 C-60.34622211 11.65587293 -50.84861883 9.76313974 -41.3125 7.75 C-40.20642395 7.51772705 -40.20642395 7.51772705 -39.07800293 7.28076172 C-29.47508386 5.25931459 -19.93156242 3.14243523 -10.52075195 0.33496094 C-6.65158874 -0.77647835 -3.88485384 -1.20460584 0 0 Z " fill="#E86A24" transform="translate(330,332)"/>
<path d="M0 0 C9.69239571 -0.06954115 19.3847054 -0.12283212 29.07729626 -0.15543652 C33.57806911 -0.17108579 38.07867115 -0.19231054 42.5793457 -0.22631836 C46.92356862 -0.25893821 51.26762733 -0.27685857 55.61196327 -0.28463173 C57.26855364 -0.29017053 58.92513512 -0.30098652 60.5816555 -0.31719017 C62.90383632 -0.3389997 65.2253405 -0.34196551 67.54760742 -0.34057617 C68.23093643 -0.351362 68.91426544 -0.36214783 69.61830139 -0.3732605 C73.91479636 -0.34548538 76.52642703 0.47499919 80 3 C78.53291432 8.72163415 75.58811438 13.36860237 72 18 C71.34 18.33 70.68 18.66 70 19 C69.01 18.01 69.01 18.01 68 17 C68.433125 16.608125 68.86625 16.21625 69.3125 15.8125 C72.83479283 12.02929659 74.51751883 7.90359155 76 3 C73.69 3 71.38 3 69 3 C69 2.34 69 1.68 69 1 C64.65815798 1.18464366 64.65815798 1.18464366 61 3 C59.39836084 3.09919077 57.79220082 3.12969898 56.1875 3.125 C55.31480469 3.12757813 54.44210937 3.13015625 53.54296875 3.1328125 C51 3 51 3 48.80078125 2.4296875 C46.91347961 1.77551253 46.91347961 1.77551253 45 3 C42.15570643 3.08691001 39.33620824 3.11553802 36.4921875 3.09765625 C35.23125778 3.09553383 35.23125778 3.09553383 33.94485474 3.09336853 C31.25486725 3.08776237 28.56496241 3.07520886 25.875 3.0625 C24.05338662 3.05748579 22.23177193 3.05292275 20.41015625 3.04882812 C15.94007223 3.03779094 11.47005014 3.0205222 7 3 C7 2.34 7 1.68 7 1 C4.69 1.66 2.38 2.32 0 3 C0 2.01 0 1.02 0 0 Z " fill="#ACBE98" transform="translate(268,132)"/>
<path d="M0 0 C7.92 1.98 7.92 1.98 16 4 C16 3.34 16 2.68 16 2 C17.32 2 18.64 2 20 2 C20.12375 2.556875 20.2475 3.11375 20.375 3.6875 C21.05976855 6.22114364 21.99133763 8.57921032 23 11 C21.68 12.32 20.36 13.64 19 15 C15.64566891 14.05066101 12.30753495 13.10251165 9 12 C8.2575 11.855625 7.515 11.71125 6.75 11.5625 C3.44251841 10.88596968 0.2375961 9.95223415 -3 9 C-3 8.34 -3 7.68 -3 7 C-3.66 6.67 -4.32 6.34 -5 6 C-4.360625 5.7525 -3.72125 5.505 -3.0625 5.25 C-0.50980961 4.03378366 -0.50980961 4.03378366 0 0 Z " fill="#A4B98C" transform="translate(302,261)"/>
<path d="M0 0 C2.97 0.495 2.97 0.495 6 1 C6 1.66 6 2.32 6 3 C6.64324219 3.07089844 7.28648437 3.14179688 7.94921875 3.21484375 C12.27391477 4.32785771 15.9109561 6.4269525 19.8125 8.5625 C20.60076172 8.98724609 21.38902344 9.41199219 22.20117188 9.84960938 C24.1373378 10.89396554 26.07005367 11.9442077 28 13 C24.98968256 13.93423645 24.13349732 14.04449911 21 13 C22.11213866 16.49529294 23.31573191 19.74469192 25 23 C24.030625 22.154375 23.06125 21.30875 22.0625 20.4375 C15.58280244 14.89651114 8.99340671 9.81147372 1.65234375 5.45703125 C1.10707031 4.97621094 0.56179688 4.49539062 0 4 C0 2.68 0 1.36 0 0 Z " fill="#D16627" transform="translate(424,175)"/>
<path d="M0 0 C0.74958984 0.10441406 1.49917969 0.20882813 2.27148438 0.31640625 C4.11999204 0.5754328 5.96647432 0.84883966 7.8125 1.125 C7.4825 1.785 7.1525 2.445 6.8125 3.125 C4.1725 3.125 1.5325 3.125 -1.1875 3.125 C-0.8575 5.765 -0.5275 8.405 -0.1875 11.125 C-0.826875 11.41375 -1.46625 11.7025 -2.125 12 C-4.33956079 12.95323451 -4.33956079 12.95323451 -5.1875 15.125 C-7.078125 15.46875 -7.078125 15.46875 -9.4375 15.625 C-13.01605038 15.94980473 -15.96716634 16.41419774 -19.1875 18.125 C-19.5175 18.785 -19.8475 19.445 -20.1875 20.125 C-22.03515625 20.7578125 -22.03515625 20.7578125 -24.25 21.25 C-24.98347656 21.41757812 -25.71695312 21.58515625 -26.47265625 21.7578125 C-27.03855469 21.87898438 -27.60445313 22.00015625 -28.1875 22.125 C-28.02172852 20.27246094 -28.02172852 20.27246094 -27.1875 18.125 C-24.87084961 16.84472656 -24.87084961 16.84472656 -21.83984375 15.765625 C-20.76025391 15.37246094 -19.68066406 14.97929687 -18.56835938 14.57421875 C-17.43205078 14.17847656 -16.29574219 13.78273438 -15.125 13.375 C-13.98482422 12.96378906 -12.84464844 12.55257813 -11.66992188 12.12890625 C-8.84724138 11.11321369 -6.02006674 10.11271498 -3.1875 9.125 C-3.97511719 8.51140625 -4.76273437 7.8978125 -5.57421875 7.265625 C-7.91376092 5.34922872 -9.50215523 3.60866598 -11.1875 1.125 C-7.23979304 -1.50680464 -4.44769851 -0.6758948 0 0 Z " fill="#AABA98" transform="translate(352.1875,280.875)"/>
<path d="M0 0 C2.97 0 5.94 0 9 0 C9 0.66 9 1.32 9 2 C6.03 2 3.06 2 0 2 C0 20.15 0 38.3 0 57 C1.32 57.33 2.64 57.66 4 58 C3.01 58.66 2.02 59.32 1 60 C0.01 59.67 -0.98 59.34 -2 59 C-2.33 40.52 -2.66 22.04 -3 3 C-2.34 3 -1.68 3 -1 3 C-0.67 2.01 -0.34 1.02 0 0 Z " fill="#9EAE8F" transform="translate(237,177)"/>
<path d="M0 0 C2.0625 0.4375 2.0625 0.4375 4 1 C-3.9979836 5.63483675 -12.01782872 10.16406511 -20.375 14.125 C-21.01058838 14.43187744 -21.64617676 14.73875488 -22.30102539 15.05493164 C-23.83886916 15.76821686 -25.41712725 16.39316138 -27 17 C-27.66 16.67 -28.32 16.34 -29 16 C-28.34 14.68 -27.68 13.36 -27 12 C-26.34 12 -25.68 12 -25 12 C-24.67 11.34 -24.34 10.68 -24 10 C-22.33333333 9.66666667 -20.66666667 9.33333333 -19 9 C-18.67 8.34 -18.34 7.68 -18 7 C-19.32 6.67 -20.64 6.34 -22 6 C-19 4 -19 4 -16 4 C-16 4.99 -16 5.98 -16 7 C-15.13375 6.505 -15.13375 6.505 -14.25 6 C-12 5 -12 5 -8 5 C-7.67 4.01 -7.34 3.02 -7 2 C-6.030625 1.855625 -5.06125 1.71125 -4.0625 1.5625 C-1.13513227 1.32437659 -1.13513227 1.32437659 0 0 Z " fill="#F0641D" transform="translate(438,295)"/>
<path d="M0 0 C0 0.66 0 1.32 0 2 C-0.95712891 2.29003906 -0.95712891 2.29003906 -1.93359375 2.5859375 C-2.75988281 2.84632813 -3.58617187 3.10671875 -4.4375 3.375 C-5.26121094 3.63023437 -6.08492188 3.88546875 -6.93359375 4.1484375 C-9.17798016 4.80882227 -9.17798016 4.80882227 -10 7 C-12.06640625 7.4140625 -12.06640625 7.4140625 -14.5625 7.625 C-15.38878906 7.69976562 -16.21507812 7.77453125 -17.06640625 7.8515625 C-18.02353516 7.92503906 -18.02353516 7.92503906 -19 8 C-19 8.33 -19 8.66 -19 9 C-19.60585938 9.04898437 -20.21171875 9.09796875 -20.8359375 9.1484375 C-26.99760464 9.6982478 -32.95885951 10.67609049 -39 12 C-39 11.34 -39 10.68 -39 10 C-28.38862384 5.87441976 -28.38862384 5.87441976 -23.875 5.375 C-22.92625 5.25125 -21.9775 5.1275 -21 5 C-20.67 4.34 -20.34 3.68 -20 3 C-13.47739598 0.93923525 -6.84558208 -0.47759875 0 0 Z " fill="#ED651B" transform="translate(349,328)"/>
<path d="M0 0 C-0.33 0.66 -0.66 1.32 -1 2 C-2.32 2 -3.64 2 -5 2 C-5 2.66 -5 3.32 -5 4 C-4.01 4.33 -3.02 4.66 -2 5 C-2.57032959 5.0501123 -3.14065918 5.10022461 -3.72827148 5.15185547 C-6.29899657 5.38319712 -8.86814757 5.62890048 -11.4375 5.875 C-12.33533203 5.95363281 -13.23316406 6.03226562 -14.15820312 6.11328125 C-15.01220703 6.19707031 -15.86621094 6.28085937 -16.74609375 6.3671875 C-17.53685303 6.44050293 -18.3276123 6.51381836 -19.14233398 6.58935547 C-19.75536377 6.72486816 -20.36839355 6.86038086 -21 7 C-21.33 7.66 -21.66 8.32 -22 9 C-24.31 8.67 -26.62 8.34 -29 8 C-29.33 7.01 -29.66 6.02 -30 5 C-26.95056181 2.9670412 -25.5970952 2.61325771 -22.0703125 2.1484375 C-21.10996094 2.01953125 -20.14960938 1.890625 -19.16015625 1.7578125 C-18.15855469 1.63148438 -17.15695313 1.50515625 -16.125 1.375 C-15.13113281 1.2409375 -14.13726562 1.106875 -13.11328125 0.96875 C-8.70354186 0.39022997 -4.45390857 -0.07498163 0 0 Z " fill="#D9B590" transform="translate(252,347)"/>
<path d="M0 0 C1.22589844 0.01353516 1.22589844 0.01353516 2.4765625 0.02734375 C3.41628906 0.04474609 3.41628906 0.04474609 4.375 0.0625 C4.375 0.7225 4.375 1.3825 4.375 2.0625 C2.7353125 2.4646875 2.7353125 2.4646875 1.0625 2.875 C-2.51392385 3.70785781 -2.51392385 3.70785781 -4.109375 5.59375 C-8.72216194 10.06387343 -20.59275199 8.15436164 -26.625 8.0625 C-26.625 7.4025 -26.625 6.7425 -26.625 6.0625 C-21.01545969 3.19250263 -15.64857885 2.30955177 -9.41796875 1.4921875 C-5.95779583 0.95985321 -3.5869264 -0.05124181 0 0 Z " fill="#E17D42" transform="translate(273.625,342.9375)"/>
<path d="M0 0 C0.33 0.99 0.66 1.98 1 3 C-2 5 -2 5 -5 5 C-5 5.66 -5 6.32 -5 7 C-6.76756294 7.39012425 -8.53924783 7.7616098 -10.3125 8.125 C-11.29863281 8.33382813 -12.28476562 8.54265625 -13.30078125 8.7578125 C-16 9 -16 9 -19 7 C-18.49396008 4.83125748 -18.00016187 3.00032373 -17 1 C-14.19921875 0.33203125 -14.19921875 0.33203125 -10.6875 -0.1875 C-8.96080078 -0.45626953 -8.96080078 -0.45626953 -7.19921875 -0.73046875 C-2.50758812 -1.12573433 -2.50758812 -1.12573433 0 0 Z " fill="#EF621B" transform="translate(373,320)"/>
<path d="M0 0 C0 0.66 0 1.32 0 2 C0.85464844 2.34933594 1.70929688 2.69867188 2.58984375 3.05859375 C4.24693359 3.74115234 4.24693359 3.74115234 5.9375 4.4375 C7.03964844 4.88996094 8.14179688 5.34242187 9.27734375 5.80859375 C12 7 12 7 13 8 C14.47081904 8.36842434 15.95207147 8.69578424 17.4375 9 C19.84329145 9.49428781 21.80084246 9.90042123 24 11 C24 11.66 24 12.32 24 13 C24.99 12.67 25.98 12.34 27 12 C27.99 12.66 28.98 13.32 30 14 C30 14.66 30 15.32 30 16 C23.00682702 14.01806388 16.18048106 11.67509542 9.34765625 9.19921875 C5.87448178 7.95503606 2.38358748 6.7909042 -1.1328125 5.67578125 C-3.18092277 4.93451958 -5.07071678 4.00751457 -7 3 C-7 2.01 -7 1.02 -7 0 C-4.3333581 -1.33332095 -2.83319697 -0.67102033 0 0 Z " fill="#B2C0A0" transform="translate(149,66)"/>
<path d="M0 0 C8.45329369 3.95360764 15.06800492 9.88227328 22 16 C21.67 16.66 21.34 17.32 21 18 C19.35 17.34 17.7 16.68 16 16 C16 15.01 16 14.02 16 13 C11.76353233 11.9910966 11.76353233 11.9910966 7.625 12.9375 C7.08875 13.288125 6.5525 13.63875 6 14 C6 12.35 6 10.7 6 9 C5.01 8.67 4.02 8.34 3 8 C3 7.01 3 6.02 3 5 C2.01 5 1.02 5 0 5 C0 3.35 0 1.7 0 0 Z " fill="#E35D1E" transform="translate(454,190)"/>
<path d="M0 0 C0.33 0 0.66 0 1 0 C1 1.65 1 3.3 1 5 C1.90363281 5.04898438 2.80726562 5.09796875 3.73828125 5.1484375 C4.91777344 5.22320312 6.09726563 5.29796875 7.3125 5.375 C8.48425781 5.44460937 9.65601562 5.51421875 10.86328125 5.5859375 C14 6 14 6 17 8 C17 8.66 17 9.32 17 10 C11.77487721 11.46670113 7.4185766 12.22577402 2 12 C2 10.68 2 9.36 2 8 C1.484375 7.34 0.96875 6.68 0.4375 6 C-1 4 -1 4 -0.6875 1.75 C-0.460625 1.1725 -0.23375 0.595 0 0 Z " fill="#A9B896" transform="translate(61,241)"/>
<path d="M0 0 C0.66 0.66 1.32 1.32 2 2 C-3.79123352 6.2378203 -9.73944728 10.15895435 -15.875 13.875 C-16.51703369 14.2680835 -17.15906738 14.66116699 -17.82055664 15.06616211 C-24.04414627 18.79377765 -24.04414627 18.79377765 -27 19 C-27.66 18.34 -28.32 17.68 -29 17 C-27.03533587 15.93224776 -25.03144641 14.93446535 -23 14 C-22.34 14.33 -21.68 14.66 -21 15 C-21 14.01 -21 13.02 -21 12 C-18.66785852 10.79371992 -16.50357861 9.8345262 -14 9 C-10.92511819 7.04208547 -10.92511819 7.04208547 -8.125 4.5 C-5.57793473 2.34136219 -3.20629228 1.03732986 0 0 Z " fill="#B0BD9D" transform="translate(412,282)"/>
<path d="M0 0 C0.66 0.268125 1.32 0.53625 2 0.8125 C-1.21244003 3.50206416 -4.37100823 4.86706431 -8.296875 6.29296875 C-9.50214844 6.73447266 -10.70742188 7.17597656 -11.94921875 7.63085938 C-13.216093 8.08738621 -14.48302077 8.54376457 -15.75 9 C-17.0327777 9.46748033 -18.31533242 9.93557299 -19.59765625 10.40429688 C-22.72962974 11.54640751 -25.86374272 12.68221723 -29 13.8125 C-29 12.8225 -29 11.8325 -29 10.8125 C-27.35 10.4825 -25.7 10.1525 -24 9.8125 C-24 9.1525 -24 8.4925 -24 7.8125 C-23.236875 7.68875 -22.47375 7.565 -21.6875 7.4375 C-18.79732864 6.93147208 -18.79732864 6.93147208 -16 4.8125 C-15.278125 4.874375 -14.55625 4.93625 -13.8125 5 C-10.62049706 4.7871998 -9.59251009 4.02716323 -7 2.25 C-3.35218509 -0.20951157 -3.35218509 -0.20951157 0 0 Z " fill="#B0BF9B" transform="translate(365,308.1875)"/>
<path d="M0 0 C0.33 0.99 0.66 1.98 1 3 C-1.75924185 4.80411967 -2.88972103 5.0127245 -6.25 4.625 C-7.1575 4.41875 -8.065 4.2125 -9 4 C-9 4.66 -9 5.32 -9 6 C-11.64 6 -14.28 6 -17 6 C-17 6.66 -17 7.32 -17 8 C-16.34 8.66 -15.68 9.32 -15 10 C-17.97 9.67 -20.94 9.34 -24 9 C-24.33 7.68 -24.66 6.36 -25 5 C-19.4657926 3.17259729 -14.37015175 2.59963117 -8.5625 2.375 C-7.73556641 2.33632812 -6.90863281 2.29765625 -6.05664062 2.2578125 C-4.03808927 2.16446908 -2.01907669 2.08119039 0 2 C0 1.34 0 0.68 0 0 Z " fill="#AFBCA0" transform="translate(408,243)"/>
<path d="M0 0 C-2.19098862 2.19098862 -2.94139641 2.39823516 -5.875 3 C-6.66648437 3.16371094 -7.45796875 3.32742188 -8.2734375 3.49609375 C-12.36806925 4.25283801 -16.47768933 4.90631365 -20.59375 5.53515625 C-22.94260125 5.75588453 -22.94260125 5.75588453 -24 7 C-26.33297433 7.04092937 -28.66705225 7.04241723 -31 7 C-31 7.66 -31 8.32 -31 9 C-34.63 9 -38.26 9 -42 9 C-42 8.67 -42 8.34 -42 8 C-41.12786865 7.79842285 -40.2557373 7.5968457 -39.35717773 7.38916016 C-36.09349673 6.63391743 -32.83019839 5.87706126 -29.56713867 5.11914062 C-28.1600601 4.79265581 -26.75283593 4.46679778 -25.34545898 4.14160156 C-23.31194225 3.67160762 -21.27897565 3.1992938 -19.24609375 2.7265625 C-17.41582642 2.30238037 -17.41582642 2.30238037 -15.54858398 1.86962891 C-13.09242555 1.26771378 -10.65280001 0.59563931 -8.23071289 -0.13134766 C-4.94368086 -1.01514271 -3.21361061 -0.9738214 0 0 Z " fill="#D17338" transform="translate(330,332)"/>
<path d="M0 0 C2.64 0.33 5.28 0.66 8 1 C7.67 2.32 7.34 3.64 7 5 C5 4 5 4 4 3 C4 4.32 4 5.64 4 7 C4.66 7.33 5.32 7.66 6 8 C8 11 8 11 8 14 C8.66 14 9.32 14 10 14 C10.8680908 15.91040052 11.71901783 17.82860737 12.5625 19.75 C13.03816406 20.81734375 13.51382812 21.8846875 14.00390625 22.984375 C14.9946154 25.98369837 15.16161779 27.13421241 14 30 C13.78085937 29.38253906 13.56171875 28.76507813 13.3359375 28.12890625 C10.95408986 21.76763025 7.88941926 16.53914485 4 11 C2.99490786 9.33639922 1.99230897 7.67125722 1 6 C0.67 5.67 0.34 5.34 0 5 C-0.04063832 3.33382885 -0.042721 1.66611905 0 0 Z " fill="#DE6420" transform="translate(445,188)"/>
<path d="M0 0 C0.66 0.33 1.32 0.66 2 1 C1.51789063 1.39832031 1.03578125 1.79664063 0.5390625 2.20703125 C-0.09257812 2.73683594 -0.72421875 3.26664062 -1.375 3.8125 C-2.00148438 4.33457031 -2.62796875 4.85664063 -3.2734375 5.39453125 C-5.2221048 7.08225739 -5.2221048 7.08225739 -7 10 C-8.7421875 10.95703125 -8.7421875 10.95703125 -10.875 11.8125 C-15.85605996 13.87919586 -20.55740954 16.36498057 -25.30078125 18.92578125 C-28.27368004 20.10891753 -29.06802877 19.90800815 -32 19 C-31.47156494 18.72849121 -30.94312988 18.45698242 -30.39868164 18.17724609 C-19.76895526 12.69834034 -9.56674019 7.2118503 0 0 Z " fill="#DA7C3B" transform="translate(420,289)"/>
<path d="M0 0 C0.5775 0.165 1.155 0.33 1.75 0.5 C4.26664369 1.14462031 4.26664369 1.14462031 8 1 C8.66 1.66 9.32 2.32 10 3 C10 2.01 10 1.02 10 0 C11.32 0.33 12.64 0.66 14 1 C12.30102259 2.46922246 10.59036529 3.92494454 8.875 5.375 C7.92367188 6.18710937 6.97234375 6.99921875 5.9921875 7.8359375 C3.01083563 9.99216327 0.52998028 11.04680058 -3 12 C-2.67 11.01 -2.34 10.02 -2 9 C-1.01 9 -0.02 9 1 9 C1.33 7.35 1.66 5.7 2 4 C1.34 4 0.68 4 0 4 C0 2.68 0 1.36 0 0 Z " fill="#F1611A" transform="translate(446,282)"/>
<path d="M0 0 C2.09042353 1.03566645 4.16649677 2.08850618 6.2265625 3.18359375 C11.43110791 5.90453687 16.33049762 7.83139182 22.06640625 9.12890625 C23.02353516 9.56009766 23.02353516 9.56009766 24 10 C24.77734375 12.08984375 24.77734375 12.08984375 25 14 C6.77083333 8.28819444 6.77083333 8.28819444 0 4 C-0.33 3.34 -0.66 2.68 -1 2 C-0.67 1.34 -0.34 0.68 0 0 Z " fill="#ACBB9B" transform="translate(46,320)"/>
<path d="M0 0 C0 3.33806496 -0.58108945 4.35678608 -2.3125 7.125 C-2.74175781 7.82882812 -3.17101562 8.53265625 -3.61328125 9.2578125 C-5 11 -5 11 -8 12 C-8 12.66 -8 13.32 -8 14 C-8.59167969 14.31453125 -9.18335938 14.6290625 -9.79296875 14.953125 C-14.18648236 17.33264624 -18.21154795 19.70038047 -22 23 C-22.66 22.67 -23.32 22.34 -24 22 C-21.92084841 20.20327652 -19.83699349 18.41257473 -17.75 16.625 C-17.16347656 16.11710937 -16.57695312 15.60921875 -15.97265625 15.0859375 C-13.08106802 12.61671609 -10.4675783 10.61378943 -7 9 C-6.31513275 7.67592331 -5.65129797 6.34090759 -5 5 C-3.37253306 3.29503463 -1.71108689 1.62102968 0 0 Z " fill="#D5723A" transform="translate(446,266)"/>
<path d="M0 0 C0.66 0.99 1.32 1.98 2 3 C-5.85426859 6.08560552 -13.54140582 8.42653599 -22 9 C-22.99 8.34 -23.98 7.68 -25 7 C-21.62902617 5.50178941 -19.79557881 5 -16 5 C-15.34 4.34 -14.68 3.68 -14 3 C-12.66158328 3.31229724 -11.32860925 3.64830932 -10 4 C-7.83700789 3.77242269 -7.83700789 3.77242269 -6 3 C-5.67 2.34 -5.34 1.68 -5 1 C-2.4375 0.375 -2.4375 0.375 0 0 Z " fill="#B0BC99" transform="translate(312,325)"/>
<path d="M0 0 C7.46695012 1.38905559 14.78674027 3.17373246 22.125 5.125 C23.176875 5.40214844 24.22875 5.67929688 25.3125 5.96484375 C27.87570778 6.64059853 30.43817518 7.31902481 33 8 C33 8.33 33 8.66 33 9 C30.69 9.33 28.38 9.66 26 10 C25.67 9.34 25.34 8.68 25 8 C23.7315625 8.061875 23.7315625 8.061875 22.4375 8.125 C18.61019674 7.98582534 15.65185525 7.15642083 12 6 C11.14277344 5.77054688 10.28554688 5.54109375 9.40234375 5.3046875 C8.05849609 4.93730469 8.05849609 4.93730469 6.6875 4.5625 C5.42486328 4.22412109 5.42486328 4.22412109 4.13671875 3.87890625 C2 3 2 3 0 0 Z " fill="#B1C0A0" transform="translate(262,248)"/>
<path d="M0 0 C-3.5717855 2.02610055 -7.33317114 2.99053419 -11.28515625 3.98046875 C-11.98265488 4.15757889 -12.6801535 4.33468903 -13.39878845 4.51716614 C-14.86819187 4.88847181 -16.33822482 5.25729395 -17.80883789 5.6237793 C-20.06060674 6.18702643 -22.30856693 6.76400142 -24.55664062 7.34179688 C-25.98676771 7.70136293 -27.41709974 8.06011503 -28.84765625 8.41796875 C-29.85554955 8.67878487 -29.85554955 8.67878487 -30.88380432 8.94487 C-34.13504512 9.74164222 -35.75299052 10.08233649 -39 9 C-38.34 9 -37.68 9 -37 9 C-37 8.34 -37 7.68 -37 7 C-34.70370006 5.85185003 -32.92301914 5.69230191 -30.375 5.4375 C-29.55773437 5.35371094 -28.74046875 5.26992188 -27.8984375 5.18359375 C-26.95871094 5.09271484 -26.95871094 5.09271484 -26 5 C-26 4.67 -26 4.34 -26 4 C-25.09121094 3.94392578 -25.09121094 3.94392578 -24.1640625 3.88671875 C-18.54944229 3.44618701 -13.62100629 2.37035063 -8.2734375 0.6328125 C-5.46187893 -0.14978628 -2.9010319 -0.22902883 0 0 Z " fill="#CB662D" transform="translate(355,331)"/>
<path d="M0 0 C1.4550293 0.01353516 1.4550293 0.01353516 2.93945312 0.02734375 C5.31406407 0.05073893 7.68814776 0.08351824 10.0625 0.125 C10.0625 0.455 10.0625 0.785 10.0625 1.125 C-4.7875 3.6 -4.7875 3.6 -19.9375 6.125 C-17.9375 2.125 -17.9375 2.125 -14.99609375 0.8828125 C-10.05256095 -0.28353825 -5.04801329 -0.08971179 0 0 Z " fill="#D56C30" transform="translate(288.9375,343.875)"/>
<path d="M0 0 C13.00900992 0.88433341 26.00367152 1.94835363 39 3 C39 3.33 39 3.66 39 4 C19.75556582 6.38426618 19.75556582 6.38426618 13 3 C9.85842756 2.63766923 6.74010079 2.49649822 3.58203125 2.34375 C2.72996094 2.2303125 1.87789062 2.116875 1 2 C0.67 1.34 0.34 0.68 0 0 Z " fill="#B0BF9F" transform="translate(129,319)"/>
<path d="M0 0 C5.06130793 -0.17156976 8.33842674 -0.04654436 13 2 C15.26390741 2.53124181 17.53370633 2.99441093 19.81640625 3.4375 C22.11393755 4.02935064 23.96225293 4.78716148 26 6 C26.33 6.66 26.66 7.32 27 8 C21.23755439 7.30507092 15.7358232 6.03383972 10.125 4.5625 C9.25875 4.34529297 8.3925 4.12808594 7.5 3.90429688 C6.67757813 3.68966797 5.85515625 3.47503906 5.0078125 3.25390625 C3.88850342 2.96495483 3.88850342 2.96495483 2.74658203 2.67016602 C1 2 1 2 0 0 Z " fill="#B6C3A8" transform="translate(270,263)"/>
<path d="M0 0 C1.65 0 3.3 0 5 0 C1.19757006 3.21274829 -3.15486922 5.14993856 -7.625 7.25 C-8.40101563 7.62640625 -9.17703125 8.0028125 -9.9765625 8.390625 C-10.7190625 8.74125 -11.4615625 9.091875 -12.2265625 9.453125 C-12.90283691 9.77442383 -13.57911133 10.09572266 -14.27587891 10.42675781 C-16 11 -16 11 -18 10 C-17.34 8.68 -16.68 7.36 -16 6 C-15.34 6 -14.68 6 -14 6 C-13.67 5.34 -13.34 4.68 -13 4 C-9.75266665 2.7242619 -7.32967418 3.16758145 -4 4 C-4 3.34 -4 2.68 -4 2 C-2.68 2 -1.36 2 0 2 C0 1.34 0 0.68 0 0 Z " fill="#E46826" transform="translate(427,301)"/>
<path d="M0 0 C4.62 0 9.24 0 14 0 C14.33 0.99 14.66 1.98 15 3 C13.73160474 3.50615298 12.46016898 4.00469099 11.1875 4.5 C10.12595703 4.91765625 10.12595703 4.91765625 9.04296875 5.34375 C7 6 7 6 4 6 C4 5.34 4 4.68 4 4 C2.68 3.34 1.36 2.68 0 2 C0 1.34 0 0.68 0 0 Z " fill="#B1BE9E" transform="translate(63,281)"/>
<path d="M0 0 C1.9375 0.3125 1.9375 0.3125 4 1 C5 4 5 4 3.671875 6.84765625 C3.03765625 7.90855469 2.4034375 8.96945313 1.75 10.0625 C1.12609375 11.12597656 0.5021875 12.18945312 -0.140625 13.28515625 C-2 16 -2 16 -5 18 C-5.66 17.34 -6.32 16.68 -7 16 C-6.566875 15.608125 -6.13375 15.21625 -5.6875 14.8125 C-3.73625325 12.71671645 -2.43131962 10.47227935 -1 8 C-0.67 7.67 -0.34 7.34 0 7 C0.04092937 4.66702567 0.04241723 2.33294775 0 0 Z " fill="#ADBD9E" transform="translate(343,133)"/>
<path d="M0 0 C-1.44781793 3.44428265 -3.27694609 5.36130962 -6.125 7.75 C-7.21167969 8.67039062 -7.21167969 8.67039062 -8.3203125 9.609375 C-8.87460938 10.06828125 -9.42890625 10.5271875 -10 11 C-10.66 10.34 -11.32 9.68 -12 9 C-9.69 7.35 -7.38 5.7 -5 4 C-7.7283768 4 -10.31654063 4.53331141 -13 5 C-13 4.01 -13 3.02 -13 2 C-11.21089097 1.47044766 -9.41860852 0.9516063 -7.625 0.4375 C-6.62726563 0.14746094 -5.62953125 -0.14257812 -4.6015625 -0.44140625 C-2 -1 -2 -1 0 0 Z " fill="#B4C2A2" transform="translate(119,305)"/>
<path d="M0 0 C0.66 0.66 1.32 1.32 2 2 C-0.16976054 8.38232755 -2.43301462 14.26734492 -6 20 C-6.99 19.67 -7.98 19.34 -9 19 C-8.71125 18.45730469 -8.4225 17.91460937 -8.125 17.35546875 C-7.75375 16.64003906 -7.3825 15.92460937 -7 15.1875 C-6.62875 14.47980469 -6.2575 13.77210938 -5.875 13.04296875 C-4.80314642 10.91079271 -4.80314642 10.91079271 -5 8 C-4.34 8 -3.68 8 -3 8 C-2.67 6.35 -2.34 4.7 -2 3 C-1.34 3 -0.68 3 0 3 C0 2.01 0 1.02 0 0 Z " fill="#ACBA9D" transform="translate(450,234)"/>
<path d="M0 0 C-0.33 0.66 -0.66 1.32 -1 2 C-1.66 2 -2.32 2 -3 2 C-3 2.66 -3 3.32 -3 4 C-1.35 3.67 0.3 3.34 2 3 C2 3.66 2 4.32 2 5 C-2.76307437 5.95261487 -7.1666528 6.08333357 -12 6 C-11.77734375 4.11328125 -11.77734375 4.11328125 -11 2 C-9.00390625 0.91796875 -9.00390625 0.91796875 -6.5625 0.1875 C-5.75941406 -0.06644531 -4.95632813 -0.32039062 -4.12890625 -0.58203125 C-2 -1 -2 -1 0 0 Z " fill="#A8B892" transform="translate(395,213)"/>
<path d="M0 0 C-0.33 0.66 -0.66 1.32 -1 2 C-2.32 2 -3.64 2 -5 2 C-5 2.66 -5 3.32 -5 4 C-4.01 4.33 -3.02 4.66 -2 5 C-8.435 5.495 -8.435 5.495 -15 6 C-14.34 4.35 -13.68 2.7 -13 1 C-8.62426048 0.40667939 -4.42471556 -0.13827236 0 0 Z " fill="#EAA16E" transform="translate(252,347)"/>
<path d="M0 0 C-2.50649633 1.30337809 -5.00897839 2.4175083 -7.625 3.5 C-10.99551276 4.75619338 -10.99551276 4.75619338 -13 7 C-15.3828125 7.1953125 -15.3828125 7.1953125 -18.125 7.125 C-19.49011719 7.09792969 -19.49011719 7.09792969 -20.8828125 7.0703125 C-21.58148438 7.04710937 -22.28015625 7.02390625 -23 7 C-23 6.34 -23 5.68 -23 5 C-19.73348625 3.96497223 -16.46122637 2.94946065 -13.1875 1.9375 C-12.25873047 1.64294922 -11.32996094 1.34839844 -10.37304688 1.04492188 C-9.48037109 0.77099609 -8.58769531 0.49707031 -7.66796875 0.21484375 C-6.84578857 -0.04176025 -6.0236084 -0.29836426 -5.17651367 -0.56274414 C-3 -1 -3 -1 0 0 Z " fill="#A9BB9A" transform="translate(322,302)"/>
<path d="M0 0 C-1.32 0.33 -2.64 0.66 -4 1 C-4 1.66 -4 2.32 -4 3 C-0.37 3 3.26 3 7 3 C7 3.33 7 3.66 7 4 C-0.03905044 4.93854006 -6.90272572 5.10808032 -14 5 C-14 4.34 -14 3.68 -14 3 C-9.03006806 0.56574762 -5.65394631 -0.34615998 0 0 Z " fill="#E48B55" transform="translate(261,346)"/>
<path d="M0 0 C7.57266875 -0.5939348 13.87518733 1.56713714 21 4 C18 6 18 6 15.125 5.6875 C14.09375 5.460625 13.0625 5.23375 12 5 C11.195625 4.855625 10.39125 4.71125 9.5625 4.5625 C6.33005038 3.85293789 3.17410926 2.93356155 0 2 C0 1.34 0 0.68 0 0 Z " fill="#AEBC9E" transform="translate(395,153)"/>
<path d="M0 0 C0.75410156 0.09990234 1.50820313 0.19980469 2.28515625 0.30273438 C4.14917753 0.55048404 6.01219288 0.80578057 7.875 1.0625 C7.545 1.7225 7.215 2.3825 6.875 3.0625 C1.20833333 3.0625 -4.45833333 3.0625 -10.125 3.0625 C-10.125 2.0725 -10.125 1.0825 -10.125 0.0625 C-6.87932383 -1.56033808 -3.48660376 -0.48475234 0 0 Z " fill="#AFBF9F" transform="translate(352.125,280.9375)"/>
<path d="M0 0 C0.33 0 0.66 0 1 0 C1 13.2 1 26.4 1 40 C0.67 40 0.34 40 0 40 C-0.06058594 38.81921875 -0.12117187 37.6384375 -0.18359375 36.421875 C-0.26802582 34.8645723 -0.35267249 33.30728121 -0.4375 31.75 C-0.47681641 30.97269531 -0.51613281 30.19539063 -0.55664062 29.39453125 C-0.59853516 28.64042969 -0.64042969 27.88632813 -0.68359375 27.109375 C-0.72025146 26.41811523 -0.75690918 25.72685547 -0.79467773 25.01464844 C-0.95437311 22.95994332 -0.95437311 22.95994332 -1.54492188 20.85351562 C-2.11526399 18.53053423 -1.61800387 17.31044583 -1 15 C-0.77711499 12.41343327 -0.58685615 9.84047222 -0.4375 7.25 C-0.39431641 6.55261719 -0.35113281 5.85523438 -0.30664062 5.13671875 C-0.20110404 3.42468078 -0.1001009 1.71236439 0 0 Z " fill="#A0A48B" transform="translate(236,41)"/>
<path d="M0 0 C0.33 0.99 0.66 1.98 1 3 C0.236875 3.598125 -0.52625 4.19625 -1.3125 4.8125 C-3.89481478 6.78417511 -3.89481478 6.78417511 -5.375 8.59375 C-7.48523398 10.41991402 -8.93255949 10.48786663 -11.6875 10.6875 C-12.49574219 10.75324219 -13.30398438 10.81898438 -14.13671875 10.88671875 C-14.75160156 10.92410156 -15.36648438 10.96148437 -16 11 C-12.53726925 8.13865759 -8.99313724 5.63425466 -5.1875 3.25 C-4.21167969 2.63640625 -3.23585938 2.0228125 -2.23046875 1.390625 C-1.49441406 0.93171875 -0.75835937 0.4728125 0 0 Z " fill="#AAB89C" transform="translate(384,270)"/>
<path d="M0 0 C-3 2 -3 2 -7 2 C-7 2.66 -7 3.32 -7 4 C-8.27057182 4.47985967 -9.54146848 4.9588593 -10.8125 5.4375 C-11.87404297 5.83775391 -11.87404297 5.83775391 -12.95703125 6.24609375 C-14.62672396 6.86225186 -16.31157704 7.43719235 -18 8 C-18.99 7.01 -19.98 6.02 -21 5 C-18.06746654 3.96448955 -15.12833062 2.94918162 -12.1875 1.9375 C-11.35412109 1.64294922 -10.52074219 1.34839844 -9.66210938 1.04492188 C-8.45844727 0.6340332 -8.45844727 0.6340332 -7.23046875 0.21484375 C-6.49207764 -0.04176025 -5.75368652 -0.29836426 -4.99291992 -0.56274414 C-3 -1 -3 -1 0 0 Z " fill="#ABB89B" transform="translate(168,59)"/>
<path d="M0 0 C2.97 0.495 2.97 0.495 6 1 C6 1.66 6 2.32 6 3 C7.65 3.33 9.3 3.66 11 4 C9.36587557 5.70840281 8.13093906 6.93453047 6 8 C3 6.25 3 6.25 0 4 C0 2.68 0 1.36 0 0 Z " fill="#DB8A44" transform="translate(424,175)"/>
<path d="M0 0 C5.852795 0.51482919 11.3297637 1.45357192 17 3 C17 3.99 17 4.98 17 6 C11.24237834 4.91103333 5.60752181 3.70663707 0 2 C0 1.34 0 0.68 0 0 Z " fill="#AFBEA0" transform="translate(301,259)"/>
<path d="M0 0 C1 1 1 1 1.09765625 3.94140625 C1.08605469 5.13636719 1.07445312 6.33132812 1.0625 7.5625 C1.05347656 8.76003906 1.04445312 9.95757812 1.03515625 11.19140625 C1.02355469 12.11824219 1.01195312 13.04507813 1 14 C0.67 14 0.34 14 0 14 C-0.03738281 13.30132812 -0.07476562 12.60265625 -0.11328125 11.8828125 C-0.17902344 10.97273437 -0.24476563 10.06265625 -0.3125 9.125 C-0.39951172 7.76761719 -0.39951172 7.76761719 -0.48828125 6.3828125 C-0.7882039 3.63778399 -0.7882039 3.63778399 -4 2 C-6.475 3.485 -6.475 3.485 -9 5 C-9.33 4.34 -9.66 3.68 -10 3 C-10.99 3.33 -11.98 3.66 -13 4 C-13 3.34 -13 2.68 -13 2 C-8.49346274 0.55790808 -4.79124078 -0.34223148 0 0 Z " fill="#A7B699" transform="translate(215,161)"/>
<path d="M0 0 C4.66861981 1.60483806 9.09258167 3.97490194 13 7 C13 7.66 13 8.32 13 9 C14.32 9.33 15.64 9.66 17 10 C17 10.99 17 11.98 17 13 C12.98981897 11.61047587 10.09967277 9.73301706 6.8125 7.0625 C5.95269531 6.37285156 5.09289062 5.68320312 4.20703125 4.97265625 C2 3 2 3 0 0 Z " fill="#AAB99E" transform="translate(23,307)"/>
<path d="M0 0 C2.5 2.625 2.5 2.625 4 5 C3.67 5.66 3.34 6.32 3 7 C2.01 6.67 1.02 6.34 0 6 C0 5.01 0 4.02 0 3 C-1.03060547 2.90912109 -1.03060547 2.90912109 -2.08203125 2.81640625 C-2.98308594 2.73261719 -3.88414062 2.64882812 -4.8125 2.5625 C-5.70582031 2.48128906 -6.59914062 2.40007812 -7.51953125 2.31640625 C-10 2 -10 2 -13 1 C-13 0.34 -13 -0.32 -13 -1 C-8.39012322 -2.44058649 -4.37640435 -1.90040106 0 0 Z " fill="#B3C3A5" transform="translate(187,154)"/>
<path d="M0 0 C-2.76628111 1.19922024 -5.537155 2.38460499 -8.3125 3.5625 C-9.49102539 4.07586914 -9.49102539 4.07586914 -10.69335938 4.59960938 C-11.45068359 4.91865234 -12.20800781 5.23769531 -12.98828125 5.56640625 C-13.68477783 5.86490479 -14.38127441 6.16340332 -15.09887695 6.47094727 C-17 7 -17 7 -20 6 C-19.34 6 -18.68 6 -18 6 C-18 5.34 -18 4.68 -18 4 C-16.68 4 -15.36 4 -14 4 C-13.67 3.01 -13.34 2.02 -13 1 C-11.39796533 0.63631108 -9.79325797 0.28438048 -8.1875 -0.0625 C-7.29417969 -0.25972656 -6.40085937 -0.45695312 -5.48046875 -0.66015625 C-3 -1 -3 -1 0 0 Z " fill="#D86C33" transform="translate(409,313)"/>
<path d="M0 0 C0 0.66 0 1.32 0 2 C1.32 2 2.64 2 4 2 C3.67 3.32 3.34 4.64 3 6 C-2.02265357 4.81819916 -5.0949151 3.55007718 -9 0 C-5.52176885 -1.15941038 -3.54104422 -0.70820884 0 0 Z " fill="#E15E1C" transform="translate(440,183)"/>
<path d="M0 0 C0.33 0.99 0.66 1.98 1 3 C-0.38931643 4.44379943 -1.78676578 5.87977512 -3.1875 7.3125 C-4.35345703 8.51326172 -4.35345703 8.51326172 -5.54296875 9.73828125 C-7.90305695 11.91076308 -10.19647888 13.46130013 -13 15 C-12.164372 10.37590307 -9.3516499 8.22323683 -5.9375 5.25 C-5.36966797 4.74339844 -4.80183594 4.23679687 -4.21679688 3.71484375 C-2.8180135 2.46886864 -1.40989267 1.23339027 0 0 Z " fill="#A9BC9A" transform="translate(399,257)"/>
<path d="M0 0 C0.33 0.99 0.66 1.98 1 3 C-0.45287661 4.33927721 -1.91247259 5.67126847 -3.375 7 C-4.59316406 8.11375 -4.59316406 8.11375 -5.8359375 9.25 C-8 11 -8 11 -10 11 C-9.67 9.68 -9.34 8.36 -9 7 C-8.34 7 -7.68 7 -7 7 C-6.7525 6.195625 -6.505 5.39125 -6.25 4.5625 C-5 2 -5 2 -2.9375 1.25 C-1.9784375 1.12625 -1.9784375 1.12625 -1 1 C-0.67 0.67 -0.34 0.34 0 0 Z " fill="#ACBA9B" transform="translate(425,271)"/>
<path d="M0 0 C0.66 0 1.32 0 2 0 C0.62815653 4.06498881 -1.22068459 6.67396561 -4.125 9.8125 C-4.84945313 10.60269531 -5.57390625 11.39289063 -6.3203125 12.20703125 C-6.87460937 12.79871094 -7.42890625 13.39039063 -8 14 C-8.33 12.68 -8.66 11.36 -9 10 C-8.01 10 -7.02 10 -6 10 C-5.9175 9.05125 -5.835 8.1025 -5.75 7.125 C-5 4 -5 4 -3 2.75 C-2.34 2.5025 -1.68 2.255 -1 2 C-0.67 1.34 -0.34 0.68 0 0 Z " fill="#D55F26" transform="translate(479,259)"/>
<path d="M0 0 C0 0.66 0 1.32 0 2 C-4.73036356 5.9580593 -7.86230717 7.62422289 -14 8 C-12.33333333 6.66666667 -10.66666667 5.33333333 -9 4 C-8.154375 3.2575 -7.30875 2.515 -6.4375 1.75 C-4 0 -4 0 0 0 Z " fill="#ACB99A" transform="translate(191,313)"/>
<path d="M0 0 C-0.33 0.66 -0.66 1.32 -1 2 C-1.99 2.33 -2.98 2.66 -4 3 C-4.66 3.66 -5.32 4.32 -6 5 C-8.3828125 5.4140625 -8.3828125 5.4140625 -11.125 5.625 C-12.03507813 5.69976562 -12.94515625 5.77453125 -13.8828125 5.8515625 C-14.93082031 5.92503906 -14.93082031 5.92503906 -16 6 C-16 5.34 -16 4.68 -16 4 C-14.274773 3.32320342 -12.54461061 2.65898 -10.8125 2 C-9.84957031 1.62875 -8.88664063 1.2575 -7.89453125 0.875 C-5.07817642 0.02363228 -2.91835561 -0.17072647 0 0 Z " fill="#ACB99C" transform="translate(148,175)"/>
<path d="M0 0 C1.41805831 0.28482368 2.83440379 0.57818144 4.25 0.875 C5.03890625 1.03742188 5.8278125 1.19984375 6.640625 1.3671875 C8.96831144 1.99150075 10.89031952 2.84838542 13 4 C13 4.66 13 5.32 13 6 C7.90551202 5.56826373 4.15487723 5.24599784 0 2 C0 1.34 0 0.68 0 0 Z " fill="#B3C19F" transform="translate(186,83)"/>
<path d="M0 0 C0 0.66 0 1.32 0 2 C-1.55780332 2.67756882 -3.12150096 3.34159457 -4.6875 4 C-5.99267578 4.556875 -5.99267578 4.556875 -7.32421875 5.125 C-10.0572002 6.01870488 -12.14700934 6.16449676 -15 6 C-13.66666667 5 -12.33333333 4 -11 3 C-10.401875 2.443125 -9.80375 1.88625 -9.1875 1.3125 C-6.10173693 -0.53895784 -3.52355072 -0.20328177 0 0 Z " fill="#F36116" transform="translate(349,328)"/>
<path d="M0 0 C2.31 0 4.62 0 7 0 C4.16797039 1.88801974 1.73974381 2.96101651 -1.4375 4.125 C-2.38496094 4.47820312 -3.33242188 4.83140625 -4.30859375 5.1953125 C-7 6 -7 6 -11 6 C-11 4 -11 4 -9 2 C-6.8359375 1.8046875 -6.8359375 1.8046875 -4.375 1.875 C-3.14910156 1.90207031 -3.14910156 1.90207031 -1.8984375 1.9296875 C-0.95871094 1.96449219 -0.95871094 1.96449219 0 2 C0 1.34 0 0.68 0 0 Z " fill="#D46633" transform="translate(379,321)"/>
<path d="M0 0 C6.10761537 1.92872064 12.2632316 4.1316158 18 7 C17.67 7.66 17.34 8.32 17 9 C13.35300012 9 11.67610429 7.94204148 8.5 6.1875 C7.06140625 5.40439453 7.06140625 5.40439453 5.59375 4.60546875 C3.35909104 3.2222687 1.73336176 1.95003198 0 0 Z " fill="#AEBB9E" transform="translate(76,303)"/>
<path d="M0 0 C1.46489049 0.56666546 2.92178003 1.15404228 4.375 1.75 C5.18710937 2.07484375 5.99921875 2.3996875 6.8359375 2.734375 C9.33315139 4.19483944 9.98244259 5.33869601 11 8 C8.0280615 6.87548273 5.66559313 5.77706209 3 4 C0.87183587 4.15688424 0.87183587 4.15688424 -1 5 C-1.33 5.66 -1.66 6.32 -2 7 C-2.125 4.625 -2.125 4.625 -2 2 C-1.34 1.34 -0.68 0.68 0 0 Z " fill="#B8C7AD" transform="translate(270,303)"/>
<path d="M0 0 C1.32 0.33 2.64 0.66 4 1 C2.30102259 2.46922246 0.59036529 3.92494454 -1.125 5.375 C-2.07632812 6.18710937 -3.02765625 6.99921875 -4.0078125 7.8359375 C-6.98916437 9.99216327 -9.47001972 11.04680058 -13 12 C-12.67 11.01 -12.34 10.02 -12 9 C-9.6875 7.9375 -9.6875 7.9375 -7 7 C-5.65949948 6.34786461 -4.32338632 5.68620031 -3 5 C-3 4.34 -3 3.68 -3 3 C-2.01 3 -1.02 3 0 3 C0 2.01 0 1.02 0 0 Z " fill="#D5602B" transform="translate(456,282)"/>
<path d="M0 0 C-1.134375 0.309375 -2.26875 0.61875 -3.4375 0.9375 C-6.78775099 1.62924531 -6.78775099 1.62924531 -8 3 C-9.68608966 3.07205511 -11.37500659 3.08386068 -13.0625 3.0625 C-13.98160156 3.05347656 -14.90070313 3.04445313 -15.84765625 3.03515625 C-16.55792969 3.02355469 -17.26820313 3.01195312 -18 3 C-14.77208445 0.8480563 -13.71599191 0.79913557 -10 1 C-10 0.34 -10 -0.32 -10 -1 C-3.375 -2.25 -3.375 -2.25 0 0 Z " fill="#F0631A" transform="translate(309,340)"/>
<path d="M0 0 C0.66 0 1.32 0 2 0 C2.32523926 3.57763189 2.42956587 5.39542581 0.3125 8.375 C-2.38790237 10.27258004 -3.77060081 10.35882213 -7 10 C-6.67 9.01 -6.34 8.02 -6 7 C-5.360625 6.896875 -4.72125 6.79375 -4.0625 6.6875 C-3.381875 6.460625 -2.70125 6.23375 -2 6 C-0.6954344 3.00384054 -0.6954344 3.00384054 0 0 Z " fill="#ACBD9A" transform="translate(269,308)"/>
<path d="M0 0 C5.28 0 10.56 0 16 0 C10.89509493 2.55245253 7.67459819 3.20634902 2 3 C1.34 2.67 0.68 2.34 0 2 C0 1.34 0 0.68 0 0 Z M-2 2 C0 3 0 3 0 3 Z " fill="#ACBB98" transform="translate(197,322)"/>
<path d="M0 0 C0 0.99 0 1.98 0 3 C-1.62249941 3.83819158 -3.24808497 4.6704116 -4.875 5.5 C-6.23238281 6.19609375 -6.23238281 6.19609375 -7.6171875 6.90625 C-10 8 -10 8 -12 8 C-10.77974937 4.3392481 -9.873509 4.07660559 -6.5625 2.3125 C-5.75941406 1.87550781 -4.95632813 1.43851562 -4.12890625 0.98828125 C-2 0 -2 0 0 0 Z " fill="#B2C09F" transform="translate(380,301)"/>
<path d="M0 0 C-2.0978523 1.20005531 -4.2020249 2.38502983 -6.3125 3.5625 C-6.90740234 3.90474609 -7.50230469 4.24699219 -8.11523438 4.59960938 C-9.70282559 5.47766262 -11.34993931 6.24586268 -13 7 C-13.99 6.67 -14.98 6.34 -16 6 C-14.375 4 -14.375 4 -12 2 C-8.75 1.75 -8.75 1.75 -6 2 C-6 1.34 -6 0.68 -6 0 C-3 -1 -3 -1 0 0 Z " fill="#A8B699" transform="translate(418,167)"/>
<path d="M0 0 C-1 3 -1 3 -2.625 4.125 C-5.71033761 5.26170333 -8.74308885 5.62420256 -12 6 C-12.33 5.34 -12.66 4.68 -13 4 C-11.2097939 3.32942113 -9.41778511 2.6636531 -7.625 2 C-6.62726563 1.62875 -5.62953125 1.2575 -4.6015625 0.875 C-2 0 -2 0 0 0 Z " fill="#AEBA9C" transform="translate(181,53)"/>
<path d="M0 0 C0.66 0.33 1.32 0.66 2 1 C1.01 2.485 1.01 2.485 0 4 C-1.99285937 4.37366113 -3.99363529 4.70740515 -6 5 C-6.66 5.66 -7.32 6.32 -8 7 C-8.66 5.68 -9.32 4.36 -10 3 C-8.906875 2.690625 -7.81375 2.38125 -6.6875 2.0625 C-4.44592006 1.41662103 -2.2130649 0.7376883 0 0 Z " fill="#E8BE93" transform="translate(237,349)"/>
<path d="M0 0 C3.3 0 6.6 0 10 0 C10 0.99 10 1.98 10 3 C6.37 3 2.74 3 -1 3 C-0.67 2.01 -0.34 1.02 0 0 Z " fill="#AEBE9A" transform="translate(215,321)"/>
<path d="M0 0 C1.65 0 3.3 0 5 0 C2.10414095 2.29648357 -0.8172031 4.04347557 -4.125 5.6875 C-5.42824219 6.34298828 -5.42824219 6.34298828 -6.7578125 7.01171875 C-9 8 -9 8 -11 8 C-11 7.01 -11 6.02 -11 5 C-7.535 4.505 -7.535 4.505 -4 4 C-4 3.34 -4 2.68 -4 2 C-2.68 2 -1.36 2 0 2 C0 1.34 0 0.68 0 0 Z " fill="#D56C38" transform="translate(427,301)"/>
<path d="M0 0 C1.9453125 0.2421875 1.9453125 0.2421875 4.125 0.875 C4.84945312 1.07867187 5.57390625 1.28234375 6.3203125 1.4921875 C6.87460938 1.65976563 7.42890625 1.82734375 8 2 C8.33 3.65 8.66 5.3 9 7 C5.37 5.35 1.74 3.7 -2 2 C-1.34 1.34 -0.68 0.68 0 0 Z " fill="#B0BF9D" transform="translate(202,88)"/>
<path d="M0 0 C0.66 0.99 1.32 1.98 2 3 C-1.42388092 6.82669043 -4.00724943 8.72278474 -9 10 C-8.06409496 8.8944811 -7.12620142 7.79064547 -6.1875 6.6875 C-5.66542969 6.07261719 -5.14335937 5.45773438 -4.60546875 4.82421875 C-3.12827531 3.14575321 -1.59960869 1.56117966 0 0 Z " fill="#ABBA9B" transform="translate(350,184)"/>
<path d="M0 0 C3.69459731 0.19970796 4.78742451 0.76444338 7.3125 3.5625 C8.1478125 4.7690625 8.1478125 4.7690625 9 6 C6.03 5.67 3.06 5.34 0 5 C-0.33 3.68 -0.66 2.36 -1 1 C-0.67 0.67 -0.34 0.34 0 0 Z " fill="#AABC9A" transform="translate(337,178)"/>
<path d="M0 0 C1.32 0.33 2.64 0.66 4 1 C5 4 5 4 3.5625 7.1875 C2.7890625 8.5796875 2.7890625 8.5796875 2 10 C1.34 10 0.68 10 0 10 C0 6.7 0 3.4 0 0 Z " fill="#B5C1A6" transform="translate(343,133)"/>
<path d="M0 0 C0.33 1.32 0.66 2.64 1 4 C-0.0209375 3.9071875 -0.0209375 3.9071875 -1.0625 3.8125 C-4.91936125 4.05868263 -7.51079594 5.35802162 -11 7 C-11 6.01 -11 5.02 -11 4 C-7.37 2.68 -3.74 1.36 0 0 Z " fill="#AAB79A" transform="translate(229,36)"/>
<path d="M0 0 C4.29 0.66 8.58 1.32 13 2 C12.67 2.99 12.34 3.98 12 5 C6.06 3.515 6.06 3.515 0 2 C0 1.34 0 0.68 0 0 Z " fill="#B1BFA1" transform="translate(257,259)"/>
<path d="M0 0 C-0.33 0.66 -0.66 1.32 -1 2 C-1.66 2 -2.32 2 -3 2 C-3 2.66 -3 3.32 -3 4 C-4.65 3.67 -6.3 3.34 -8 3 C-8 2.01 -8 1.02 -8 0 C-4.71023192 -1.09658936 -3.28696233 -0.79953138 0 0 Z " fill="#C3CFB1" transform="translate(391,248)"/>
<path d="M0 0 C1.77503906 0.03480469 1.77503906 0.03480469 3.5859375 0.0703125 C5.36871094 0.09738281 5.36871094 0.09738281 7.1875 0.125 C8.10273438 0.14820313 9.01796875 0.17140625 9.9609375 0.1953125 C9.9609375 0.5253125 9.9609375 0.8553125 9.9609375 1.1953125 C8.21308921 1.55994982 6.46253248 1.9116203 4.7109375 2.2578125 C3.24914062 2.55365234 3.24914062 2.55365234 1.7578125 2.85546875 C-0.9071815 3.17928785 -2.52777973 3.05034449 -5.0390625 2.1953125 C-3.0390625 0.1953125 -3.0390625 0.1953125 0 0 Z " fill="#CF6831" transform="translate(305.0390625,340.8046875)"/>
<path d="M0 0 C1.98 0 3.96 0 6 0 C6 0.99 6 1.98 6 3 C2.52674819 4.1577506 -0.36067448 4.06866652 -4 4 C-4 3.34 -4 2.68 -4 2 C-2.68 2 -1.36 2 0 2 C0 1.34 0 0.68 0 0 Z " fill="#ACBE99" transform="translate(321,322)"/>
<path d="M0 0 C2.31 0.33 4.62 0.66 7 1 C7 1.99 7 2.98 7 4 C2.545 4.495 2.545 4.495 -2 5 C-1.34 3.35 -0.68 1.7 0 0 Z " fill="#BAC8AA" transform="translate(69,248)"/>
<path d="M0 0 C1.98 0.495 1.98 0.495 4 1 C4 1.66 4 2.32 4 3 C4.99 2.67 5.98 2.34 7 2 C7.99 2.66 8.98 3.32 10 4 C10 4.66 10 5.32 10 6 C6.7 5.01 3.4 4.02 0 3 C0 2.01 0 1.02 0 0 Z " fill="#AEBF9B" transform="translate(169,76)"/>
<path d="M0 0 C0 0.99 0 1.98 0 3 C-0.556875 3.12375 -1.11375 3.2475 -1.6875 3.375 C-4.22114364 4.05976855 -6.57921032 4.99133763 -9 6 C-9 5.01 -9 4.02 -9 3 C-2.25 0 -2.25 0 0 0 Z " fill="#AEBC98" transform="translate(193,49)"/>
<path d="M0 0 C0.66 0.33 1.32 0.66 2 1 C0.71480435 3.86697492 -0.57129254 5.97607712 -3 8 C-3.66 8 -4.32 8 -5 8 C-5.33 7.01 -5.66 6.02 -6 5 C-5.195625 4.360625 -4.39125 3.72125 -3.5625 3.0625 C-1.7249496 1.59396498 -1.7249496 1.59396498 0 0 Z " fill="#ADB79D" transform="translate(433,263)"/>
<path d="M0 0 C2.475 0.99 2.475 0.99 5 2 C4.67 2.99 4.34 3.98 4 5 C2.02 5 0.04 5 -2 5 C-1.125 1.125 -1.125 1.125 0 0 Z " fill="#ADB99D" transform="translate(114,214)"/>
<path d="M0 0 C-0.33 0.66 -0.66 1.32 -1 2 C-2.92578125 2.59765625 -2.92578125 2.59765625 -5.3125 3.0625 C-6.48232422 3.29646484 -6.48232422 3.29646484 -7.67578125 3.53515625 C-8.44277344 3.68855469 -9.20976562 3.84195313 -10 4 C-11.33531635 4.32529853 -12.66939662 4.65593093 -14 5 C-14 4.34 -14 3.68 -14 3 C-4.58997722 -0.44419134 -4.58997722 -0.44419134 0 0 Z " fill="#B0BFA1" transform="translate(214,43)"/>
<path d="M0 0 C0.33 0 0.66 0 1 0 C1.31563182 5.26053037 0.66590937 8.44573816 -2 13 C-3.0625 11.1875 -3.0625 11.1875 -4 9 C-3.67 8.01 -3.34 7.02 -3 6 C-2.01 6 -1.02 6 0 6 C0 4.02 0 2.04 0 0 Z " fill="#DC551F" transform="translate(485,245)"/>
<path d="M0 0 C4.95 0.99 4.95 0.99 10 2 C9.67 2.99 9.34 3.98 9 5 C6.03 4.01 3.06 3.02 0 2 C0 1.34 0 0.68 0 0 Z " fill="#A3AF96" transform="translate(242,234)"/>
<path d="M0 0 C1.71875 1.515625 1.71875 1.515625 3 3 C1.39620659 3.05416188 -0.20811406 3.09286638 -1.8125 3.125 C-2.70582031 3.14820313 -3.59914063 3.17140625 -4.51953125 3.1953125 C-7 3 -7 3 -10 1 C-6.44646071 -0.1845131 -3.72986522 -0.26641894 0 0 Z " fill="#9FB183" transform="translate(111,215)"/>
<path d="M0 0 C1.12894876 0.93274109 2.25300876 1.87140122 3.375 2.8125 C4.00148438 3.33457031 4.62796875 3.85664063 5.2734375 4.39453125 C7 6 7 6 9 9 C6 9 6 9 3.9375 7.3125 C1.94911159 4.93926222 0.97313276 2.91939827 0 0 Z " fill="#A6AE89" transform="translate(431,190)"/>
<path d="M0 0 C-0.33 0.99 -0.66 1.98 -1 3 C-2.45635371 3.22174933 -3.91522956 3.42698698 -5.375 3.625 C-6.18710938 3.74101562 -6.99921875 3.85703125 -7.8359375 3.9765625 C-8.55007812 3.98429688 -9.26421875 3.99203125 -10 4 C-10.66 3.34 -11.32 2.68 -12 2 C-10.56342755 1.66269158 -9.12569907 1.33030409 -7.6875 1 C-6.88699219 0.814375 -6.08648437 0.62875 -5.26171875 0.4375 C-3 0 -3 0 0 0 Z " fill="#ACBAA0" transform="translate(173,154)"/>
<path d="M0 0 C0 0.66 0 1.32 0 2 C-3.29549466 3.72264494 -6.33118845 5.29445932 -10 6 C-10.33 5.34 -10.66 4.68 -11 4 C-9.5437455 3.32880451 -8.08492133 2.66318193 -6.625 2 C-5.81289063 1.62875 -5.00078125 1.2575 -4.1640625 0.875 C-2 0 -2 0 0 0 Z " fill="#D37442" transform="translate(388,309)"/>
<path d="M0 0 C-1.28813342 0.83878455 -2.58063256 1.67086783 -3.875 2.5 C-4.59429687 2.9640625 -5.31359375 3.428125 -6.0546875 3.90625 C-8 5 -8 5 -10 5 C-9.01906046 2.54765115 -8.31296172 1.2190732 -6.125 -0.3125 C-3.62654486 -1.12082372 -2.47071024 -0.71847013 0 0 Z " fill="#D16D38" transform="translate(442,296)"/>
<path d="M0 0 C0.33 0.66 0.66 1.32 1 2 C1.66 2 2.32 2 3 2 C3 2.66 3 3.32 3 4 C0.69 4.66 -1.62 5.32 -4 6 C-4 5.01 -4 4.02 -4 3 C-2 1.3125 -2 1.3125 0 0 Z " fill="#EE661D" transform="translate(419,292)"/>
<path d="M0 0 C-0.99 0.33 -1.98 0.66 -3 1 C-2.67 2.32 -2.34 3.64 -2 5 C-4.475 4.01 -4.475 4.01 -7 3 C-7 2.01 -7 1.02 -7 0 C-4.3333581 -1.33332095 -2.83319697 -0.67102033 0 0 Z " fill="#BDCAB1" transform="translate(149,66)"/>
<path d="M0 0 C0.66 0.33 1.32 0.66 2 1 C0.76446724 2.20254524 -0.48902339 3.38666232 -1.75 4.5625 C-2.79414063 5.55443359 -2.79414063 5.55443359 -3.859375 6.56640625 C-4.56578125 7.03949219 -5.2721875 7.51257813 -6 8 C-7.32 7.67 -8.64 7.34 -10 7 C-6.7 4.69 -3.4 2.38 0 0 Z " fill="#CE7B41" transform="translate(420,289)"/>
<path d="M0 0 C3.465 1.485 3.465 1.485 7 3 C5.4375 4.125 5.4375 4.125 3 5 C-0.75 4.125 -0.75 4.125 -4 3 C-2.68 2.01 -1.36 1.02 0 0 Z " fill="#B3C1A4" transform="translate(312,272)"/>
<path d="M0 0 C1.8125 1.5625 1.8125 1.5625 3 3 C-0.49234244 3.09978121 -3.59437148 2.77842938 -7 2 C-7 1.34 -7 0.68 -7 0 C-4.26634878 -1.36682561 -2.89333621 -0.84683011 0 0 Z " fill="#9DB085" transform="translate(399,215)"/>
<path d="M0 0 C0 0.66 0 1.32 0 2 C-3.82989106 3.80230168 -6.78121808 4.19622241 -11 4 C-7.61125486 1.74083657 -4.15175481 0 0 0 Z " fill="#EA6D23" transform="translate(354,324)"/>
<path d="M0 0 C0 0.66 0 1.32 0 2 C-0.66 2 -1.32 2 -2 2 C-2.33 2.66 -2.66 3.32 -3 4 C-5.31 3.67 -7.62 3.34 -10 3 C-6.59538535 1.23899242 -3.90650339 0 0 0 Z " fill="#B5C1A7" transform="translate(105,308)"/>
<path d="M0 0 C0.66 0.33 1.32 0.66 2 1 C1.375 3.4375 1.375 3.4375 0 6 C-3.125 6.8125 -3.125 6.8125 -6 7 C-5.67 6.01 -5.34 5.02 -5 4 C-3.66666667 3.66666667 -2.33333333 3.33333333 -1 3 C-0.67 2.01 -0.34 1.02 0 0 Z " fill="#F36523" transform="translate(409,306)"/>
<path d="M0 0 C0.33 1.32 0.66 2.64 1 4 C-1.31 5.98 -3.62 7.96 -6 10 C-4.6302836 6.00499382 -2.74277578 3.19990508 0 0 Z " fill="#CC753F" transform="translate(453,256)"/>
<path d="M0 0 C-1.32 0.33 -2.64 0.66 -4 1 C-3.67 1.99 -3.34 2.98 -3 4 C-3.99 4.495 -3.99 4.495 -5 5 C-5 4.34 -5 3.68 -5 3 C-6.65 3.33 -8.3 3.66 -10 4 C-7.6604297 0.49064455 -4.21379901 -2.1068995 0 0 Z " fill="#ABBA98" transform="translate(119,185)"/>
<path d="M0 0 C2.00720923 0.28674418 4.0085944 0.61866701 6 1 C6 1.66 6 2.32 6 3 C4.35 3.66 2.7 4.32 1 5 C0.34 3.68 -0.32 2.36 -1 1 C-0.67 0.67 -0.34 0.34 0 0 Z " fill="#CE946E" transform="translate(424,175)"/>
<path d="M0 0 C0 0.99 0 1.98 0 3 C-3.465 4.485 -3.465 4.485 -7 6 C-7.66 5.01 -8.32 4.02 -9 3 C-6.03 2.01 -3.06 1.02 0 0 Z " fill="#AAB99B" transform="translate(377,161)"/>
<path d="M0 0 C0 0.99 0 1.98 0 3 C-1.98 3.99 -3.96 4.98 -6 6 C-6.33 5.01 -6.66 4.02 -7 3 C-4.69 2.01 -2.38 1.02 0 0 Z " fill="#AFBCA1" transform="translate(393,153)"/>
<path d="M0 0 C1.98 0 3.96 0 6 0 C4.68 0.33 3.36 0.66 2 1 C2.33 2.32 2.66 3.64 3 5 C1.35 5 -0.3 5 -2 5 C-1.34 3.35 -0.68 1.7 0 0 Z " fill="#DAA67B" transform="translate(239,348)"/>
<path d="M0 0 C3.45925163 1.2491742 6.14693203 2.67527795 9 5 C8.01 5.495 8.01 5.495 7 6 C4.64018187 5.06421005 2.30368736 4.06652192 0 3 C0 2.01 0 1.02 0 0 Z " fill="#A9BA99" transform="translate(67,298)"/>
<path d="M0 0 C1.65 0 3.3 0 5 0 C3.35 1.98 1.7 3.96 0 6 C-1.125 2.25 -1.125 2.25 0 0 Z " fill="#DB6423" transform="translate(464,274)"/>
<path d="M0 0 C2.64 0 5.28 0 8 0 C8 0.99 8 1.98 8 3 C5.6568787 2.74438677 3.32156597 2.40729228 1 2 C0.67 1.34 0.34 0.68 0 0 Z " fill="#AEBEA2" transform="translate(270,263)"/>
<path d="M0 0 C0.66 0.33 1.32 0.66 2 1 C2 1.66 2 2.32 2 3 C2.99 3.33 3.98 3.66 5 4 C1.06329512 5.31223496 -1.12488144 4.24296256 -5 3 C-3 1 -3 1 0 0 Z " fill="#C4D2B8" transform="translate(407,215)"/>
<path d="M0 0 C4.875 4.625 4.875 4.625 6 8 C5.01 8 4.02 8 3 8 C3 6.68 3 5.36 3 4 C2.01 4 1.02 4 0 4 C0 2.68 0 1.36 0 0 Z " fill="#D1612A" transform="translate(476,208)"/>
<path d="M0 0 C2.97 0 5.94 0 9 0 C8.67 0.66 8.34 1.32 8 2 C5.67843403 2.40729228 3.3431213 2.74438677 1 3 C0.67 2.01 0.34 1.02 0 0 Z " fill="#9EAD89" transform="translate(298,176)"/>
<path d="M0 0 C-2 2 -2 2 -5.125 2.125 C-6.548125 2.063125 -6.548125 2.063125 -8 2 C-8 1.34 -8 0.68 -8 0 C-4.71023192 -1.09658936 -3.28696233 -0.79953138 0 0 Z " fill="#D87036" transform="translate(330,332)"/>
<path d="M0 0 C2.31 0 4.62 0 7 0 C6.67 0.99 6.34 1.98 6 3 C3.03 2.505 3.03 2.505 0 2 C0 1.34 0 0.68 0 0 Z " fill="#AEBDA2" transform="translate(282,310)"/>
<path d="M0 0 C2.97 0 5.94 0 9 0 C9 0.99 9 1.98 9 3 C6.03 2.67 3.06 2.34 0 2 C0 1.34 0 0.68 0 0 Z " fill="#AEBE9F" transform="translate(237,255)"/>
<path d="M0 0 C0.33 0.66 0.66 1.32 1 2 C0.01 2.99 -0.98 3.98 -2 5 C-1.34 5.33 -0.68 5.66 0 6 C-1.65 6 -3.3 6 -5 6 C-4.75 4.125 -4.75 4.125 -4 2 C-1.9375 0.75 -1.9375 0.75 0 0 Z " fill="#BBC5A9" transform="translate(388,213)"/>
<path d="M0 0 C-3.625 3 -3.625 3 -7 3 C-7 2.34 -7 1.68 -7 1 C-7.66 0.67 -8.32 0.34 -9 0 C-2.25 -1.125 -2.25 -1.125 0 0 Z " fill="#AEBF91" transform="translate(268,337)"/>
<path d="M0 0 C0.66 0.33 1.32 0.66 2 1 C1.01 1.33 0.02 1.66 -1 2 C-1 2.66 -1 3.32 -1 4 C-3.31 4 -5.62 4 -8 4 C-5.31143836 2.20762558 -3.0466145 1.01553817 0 0 Z " fill="#CA723E" transform="translate(367,317)"/>
<path d="M0 0 C3.625 -0.1875 3.625 -0.1875 7 0 C4.23776722 2.76223278 1.79293383 2.57856291 -2 3 C-1.34 2.01 -0.68 1.02 0 0 Z " fill="#ADBD9D" transform="translate(250,317)"/>
<path d="M0 0 C0.99 0.66 1.98 1.32 3 2 C2.01 3.485 2.01 3.485 1 5 C-0.32 4.34 -1.64 3.68 -3 3 C-2.01 2.01 -1.02 1.02 0 0 Z " fill="#C1CBAE" transform="translate(344,280)"/>
<path d="M0 0 C4.95 0.99 4.95 0.99 10 2 C6 4 6 4 3.3125 3.25 C1 2 1 2 0 0 Z " fill="#B5C3AB" transform="translate(262,248)"/>
<path d="M0 0 C2.99324263 1.0975223 3.84610901 1.67682892 5.25 4.625 C5.4975 5.40875 5.745 6.1925 6 7 C3.00675737 5.9024777 2.15389099 5.32317108 0.75 2.375 C0.5025 1.59125 0.255 0.8075 0 0 Z " fill="#DB5E1D" transform="translate(447,194)"/>
<path d="M0 0 C3.465 1.98 3.465 1.98 7 4 C4.53721199 5.231394 2.7204945 5.07159196 0 5 C0 3.35 0 1.7 0 0 Z " fill="#D76324" transform="translate(454,190)"/>
<path d="M0 0 C1.65 0 3.3 0 5 0 C4.67 1.32 4.34 2.64 4 4 C2.68 3.67 1.36 3.34 0 3 C0 2.01 0 1.02 0 0 Z " fill="#EF5A0A" transform="translate(439,185)"/>
</svg>
