<?xml version="1.0" encoding="UTF-8"?>
<svg version="1.1" xmlns="http://www.w3.org/2000/svg" width="1080" height="1080">
<path d="M0 0 C356.4 0 712.8 0 1080 0 C1080 356.4 1080 712.8 1080 1080 C723.6 1080 367.2 1080 0 1080 C0 723.6 0 367.2 0 0 Z " fill="#FEFEFE" transform="translate(0,0)"/>
<path d="M0 0 C18.04222092 16.79971503 30.77643405 38.66813008 37.734375 62.17333984 C38.26423103 63.96205147 38.83147161 65.73957835 39.40234375 67.515625 C40.55304079 72.07890426 41.02741702 76.56931033 41.4375 81.25 C41.5202417 82.1886792 41.6029834 83.1273584 41.68823242 84.09448242 C43.29906571 103.29369482 42.45078131 124.00808544 35.3125 142.125 C34.90040283 143.19693604 34.90040283 143.19693604 34.47998047 144.29052734 C21.58735288 177.55719599 -2.2473276 205.42752187 -35.16699219 220.24072266 C-37.8494329 221.40036543 -40.54348024 222.52277857 -43.25 223.625 C-44.10746826 223.9758667 -44.96493652 224.3267334 -45.84838867 224.68823242 C-47.07005737 225.16740112 -47.07005737 225.16740112 -48.31640625 225.65625 C-49.4003064 226.08260742 -49.4003064 226.08260742 -50.50610352 226.51757812 C-52.6875 227.125 -52.6875 227.125 -57.6875 227.125 C-57.6875 389.155 -57.6875 551.185 -57.6875 718.125 C-55.7075 718.455 -53.7275 718.785 -51.6875 719.125 C-17.00252412 730.12824701 11.13035303 754.11091643 28.3125 786.125 C31.03614466 791.64447299 33.25476823 797.32896666 35.3125 803.125 C35.55871094 803.80643066 35.80492187 804.48786133 36.05859375 805.18994141 C40.21454707 816.96982262 41.63113441 828.69208196 42.3125 841.125 C42.37308594 842.22457031 42.43367188 843.32414063 42.49609375 844.45703125 C43.2666922 876.86749526 31.96324755 909.87616275 10.3125 934.125 C9.58160156 934.97578125 8.85070312 935.8265625 8.09765625 936.703125 C-8.83013514 956.10017242 -29.7344699 968.17080094 -54.0625 976.0625 C-54.92883057 976.34504639 -55.79516113 976.62759277 -56.68774414 976.91870117 C-68.43444013 980.53554336 -80.0078607 981.45260469 -92.25 981.375 C-93.47396484 981.38273437 -94.69792969 981.39046875 -95.95898438 981.3984375 C-107.80639891 981.37321682 -118.63411361 979.4647591 -129.9375 976 C-130.93040039 975.69578125 -131.92330078 975.3915625 -132.94628906 975.078125 C-165.57663788 964.70388809 -193.82473422 941.0642728 -209.79296875 910.828125 C-210.42727581 909.59518478 -211.05902438 908.36092291 -211.6875 907.125 C-212.17863281 906.17109375 -212.66976563 905.2171875 -213.17578125 904.234375 C-216.35518694 897.65900967 -218.487777 890.8045681 -220.57421875 883.82421875 C-221.23585813 881.62571876 -221.92890398 879.43566996 -222.68774414 877.26879883 C-225.79660066 867.49279261 -226.00486731 857.29746352 -225.9375 847.125 C-225.94523437 845.95710937 -225.95296875 844.78921875 -225.9609375 843.5859375 C-225.93424086 831.54575221 -224.11627007 820.30222284 -220.5625 808.8125 C-220.25828125 807.82411133 -219.9540625 806.83572266 -219.640625 805.81738281 C-214.20037689 788.78343523 -205.22254616 773.75536353 -193.6875 760.125 C-192.65496094 758.88943359 -192.65496094 758.88943359 -191.6015625 757.62890625 C-176.14636825 739.74663276 -152.93287492 723.75126909 -129.6875 718.125 C-128.3675 718.125 -127.0475 718.125 -125.6875 718.125 C-126.0175 556.425 -126.3475 394.725 -126.6875 228.125 C-132.6275 226.145 -138.5675 224.165 -144.6875 222.125 C-148.09690993 220.61187605 -151.26266747 219.15788415 -154.5 217.375 C-155.67743774 216.7399353 -155.67743774 216.7399353 -156.87866211 216.09204102 C-167.99939222 209.93054004 -177.44386002 201.80841938 -186.6875 193.125 C-187.27660156 192.60035156 -187.86570312 192.07570313 -188.47265625 191.53515625 C-194.8580726 185.60260631 -199.73601481 178.24996844 -204.6875 171.125 C-205.26757812 170.29097656 -205.84765625 169.45695313 -206.4453125 168.59765625 C-225.06668565 139.64803515 -230.07766291 101.90553993 -223.14892578 68.53076172 C-218.93067393 51.11075747 -211.33826362 34.53874003 -200.6875 20.125 C-200.12546875 19.35285156 -199.5634375 18.58070312 -198.984375 17.78515625 C-176.17873253 -12.53356003 -144.11071652 -29.68379751 -107.01953125 -35.27734375 C-67.64069382 -40.09251148 -29.44398024 -25.84527154 0 0 Z " fill="#010101" transform="translate(631.6875,66.875)"/>
<path d="M0 0 C15.11675187 11.77515409 24.2839497 27.33925893 27.125 46.25 C28.00820809 65.1876247 24.74861097 82.57969199 11.96484375 97.27734375 C11.35769531 97.92832031 10.75054688 98.57929688 10.125 99.25 C9.279375 100.1575 8.43375 101.065 7.5625 102 C6.758125 102.7425 5.95375 103.485 5.125 104.25 C4.196875 105.178125 3.26875 106.10625 2.3125 107.0625 C-11.7084066 118.82786945 -30.00165667 122.64512105 -47.875 121.25 C-64.71201949 119.49399183 -80.76514248 111.29318088 -91.5625 98.05859375 C-97.47203762 90.39196087 -101.63554889 82.39068897 -104.875 73.25 C-105.14054687 72.50878906 -105.40609375 71.76757812 -105.6796875 71.00390625 C-108.56731123 60.85766672 -108.16536336 47.22499629 -104.875 37.25 C-104.56820313 36.198125 -104.26140625 35.14625 -103.9453125 34.0625 C-98.12475214 15.75784121 -85.96284973 2.67469163 -69.1875 -6.4375 C-46.15548941 -17.28877488 -20.79469482 -14.31476159 0 0 Z " fill="#FDFDFD" transform="translate(579.875,110.75)"/>
</svg>
